<svg version="1.1" xmlns="http://www.w3.org/2000/svg" viewBox="0 0 275.03607177734375 251.28683471679688" width="275.03607177734375" height="251.28683471679688" class="excalidraw-svg"><!-- svg-source:excalidraw --><metadata></metadata><defs><style class="style-fonts">
      </style></defs><g transform="translate(31.62652587890625 18) rotate(0 7.7814178466796875 5.2950286865234375)" stroke="none"><path fill="#1e1e1e" d="M 1.40,-0.14 Q 1.40,-0.14 1.68,1.27 1.97,2.69 2.28,4.14 2.60,5.59 2.96,6.61 3.31,7.64 3.82,8.41 4.32,9.18 4.92,9.70 5.52,10.22 6.32,10.52 7.12,10.81 8.03,10.84 8.95,10.88 9.83,10.50 10.72,10.12 11.45,9.39 12.19,8.66 12.64,7.89 13.09,7.12 13.25,6.36 13.40,5.61 13.13,4.36 12.85,3.12 12.36,2.07 11.87,1.01 11.37,0.49 10.87,-0.02 10.19,-0.12 9.51,-0.23 8.63,-0.11 7.75,0.00 6.75,0.42 5.76,0.84 4.91,1.28 4.07,1.72 2.93,2.75 1.79,3.79 1.76,3.89 1.72,3.99 1.66,4.08 1.60,4.16 1.51,4.22 1.42,4.28 1.32,4.31 1.22,4.34 1.11,4.33 1.00,4.33 0.90,4.29 0.81,4.25 0.72,4.18 0.64,4.11 0.59,4.02 0.53,3.93 0.51,3.83 0.49,3.72 0.50,3.62 0.51,3.51 0.56,3.41 0.60,3.32 0.67,3.24 0.75,3.16 0.84,3.11 0.93,3.06 1.04,3.05 1.14,3.03 1.25,3.05 1.35,3.06 1.45,3.11 1.54,3.16 1.61,3.24 1.69,3.32 1.73,3.41 1.78,3.51 1.79,3.61 1.80,3.72 1.78,3.82 1.75,3.93 1.70,4.02 1.64,4.11 1.56,4.18 1.48,4.25 1.38,4.29 1.29,4.33 1.18,4.33 1.07,4.34 0.97,4.31 0.87,4.28 0.78,4.22 0.69,4.16 0.63,4.08 0.56,3.99 0.53,3.89 0.50,3.79 0.50,3.69 0.50,3.58 0.50,3.58 0.50,3.58 1.43,1.16 2.36,-1.24 3.38,-1.88 4.41,-2.51 5.92,-3.09 7.43,-3.67 8.99,-3.73 10.55,-3.78 11.99,-3.20 13.43,-2.62 14.32,-1.55 15.22,-0.48 15.83,1.01 16.45,2.52 16.68,4.47 16.90,6.42 16.51,7.71 16.12,8.99 15.34,10.14 14.57,11.30 13.27,12.36 11.97,13.43 10.37,13.92 8.77,14.40 7.27,14.23 5.77,14.05 4.47,13.43 3.17,12.80 2.28,11.91 1.38,11.01 0.72,9.87 0.06,8.73 -0.31,7.51 -0.70,6.28 -1.03,4.66 -1.35,3.04 -1.38,1.59 -1.40,0.14 -1.40,-0.02 -1.39,-0.19 -1.35,-0.35 -1.31,-0.51 -1.23,-0.66 -1.14,-0.81 -1.03,-0.94 -0.92,-1.06 -0.77,-1.16 -0.63,-1.25 -0.47,-1.31 -0.31,-1.37 -0.14,-1.39 0.02,-1.41 0.18,-1.38 0.35,-1.36 0.51,-1.30 0.67,-1.24 0.81,-1.14 0.95,-1.04 1.06,-0.91 1.17,-0.78 1.25,-0.63 1.32,-0.48 1.36,-0.31 1.40,-0.14 1.40,-0.14 L 1.40,-0.14 Z"></path></g><g transform="translate(47.283477783203125 23.333343505859375) rotate(0 26.648818969726562 50.28868103027344)" stroke="none"><path fill="#1e1e1e" d="M -0.39,-1.40 Q -0.39,-1.40 1.16,-2.00 2.71,-2.60 4.53,-3.00 6.34,-3.39 8.41,-3.67 10.49,-3.96 12.20,-4.30 13.92,-4.65 15.33,-4.97 16.75,-5.30 17.93,-5.58 19.12,-5.86 20.72,-6.09 22.32,-6.32 24.19,-6.47 26.05,-6.62 27.77,-6.71 29.48,-6.79 31.03,-6.82 32.58,-6.84 33.76,-6.97 34.93,-7.11 35.85,-7.23 36.76,-7.35 38.02,-7.34 39.27,-7.34 40.21,-7.32 41.14,-7.30 42.10,-7.25 43.05,-7.21 43.86,-7.20 44.66,-7.18 45.36,-7.21 46.06,-7.23 46.62,-7.27 47.17,-7.31 47.70,-7.39 48.23,-7.47 47.97,-7.25 47.71,-7.02 47.89,-7.15 48.07,-7.27 48.27,-7.35 48.47,-7.43 48.68,-7.46 48.90,-7.49 49.12,-7.47 49.33,-7.45 49.54,-7.37 49.74,-7.30 49.92,-7.18 50.10,-7.06 50.25,-6.90 50.39,-6.74 50.50,-6.55 50.60,-6.36 50.66,-6.15 50.71,-5.94 50.72,-5.72 50.72,-5.50 50.67,-5.29 50.62,-5.08 50.52,-4.89 50.43,-4.69 50.28,-4.53 50.14,-4.36 49.92,-2.88 49.70,-1.39 49.54,-0.51 49.38,0.37 49.24,1.53 49.10,2.69 49.02,3.97 48.95,5.26 48.93,7.32 48.91,9.38 48.86,11.24 48.81,13.10 48.81,14.82 48.80,16.55 48.84,18.07 48.88,19.58 48.91,20.61 48.95,21.63 48.95,22.60 48.96,23.57 49.00,24.45 49.05,25.32 48.93,26.83 48.82,28.33 48.69,29.57 48.56,30.81 48.48,31.60 48.40,32.39 48.40,33.11 48.40,33.82 48.45,34.40 48.51,34.98 48.53,35.56 48.56,36.14 48.57,36.28 48.59,36.41 48.58,36.62 48.57,36.82 48.51,37.02 48.45,37.22 48.35,37.39 48.24,37.57 48.10,37.72 47.95,37.86 47.77,37.97 47.60,38.08 47.40,38.14 47.21,38.20 47.00,38.22 46.80,38.23 46.59,38.19 46.39,38.16 46.20,38.07 46.01,37.99 45.85,37.86 45.69,37.74 45.56,37.58 45.43,37.42 45.35,37.23 45.26,37.04 45.22,36.84 45.18,36.64 46.90,36.52 48.61,36.41 48.60,36.62 48.59,36.82 48.53,37.02 48.46,37.22 48.36,37.40 48.25,37.58 48.11,37.72 47.96,37.87 47.78,37.98 47.61,38.09 47.41,38.15 47.21,38.21 47.00,38.23 46.80,38.24 46.59,38.21 46.39,38.17 46.20,38.09 46.01,38.00 45.84,37.87 45.68,37.75 45.55,37.58 45.42,37.42 45.33,37.23 45.25,37.04 45.21,36.84 45.17,36.64 46.26,37.41 47.36,38.18 46.87,38.65 46.38,39.12 45.63,39.64 44.88,40.16 44.26,40.65 43.63,41.14 43.17,41.57 42.70,41.99 43.73,41.83 44.75,41.66 45.81,41.89 46.87,42.13 47.88,42.31 48.88,42.49 49.70,42.72 50.52,42.95 51.11,44.66 51.71,46.38 50.92,47.18 50.14,47.99 48.80,48.84 47.45,49.70 46.53,50.29 45.61,50.89 45.05,51.31 44.48,51.73 44.18,51.25 43.88,50.77 44.47,50.80 45.07,50.83 45.96,51.03 46.85,51.23 47.98,51.49 49.11,51.76 50.07,52.00 51.04,52.25 51.89,52.62 52.75,53.00 53.49,54.11 54.23,55.21 53.96,56.49 53.68,57.76 52.61,58.84 51.54,59.92 50.60,60.57 49.65,61.23 49.11,61.61 48.58,61.99 49.04,61.70 49.51,61.41 50.09,61.75 50.68,62.09 51.29,62.86 51.91,63.62 52.20,64.78 52.49,65.93 52.54,67.09 52.58,68.24 52.55,69.86 52.52,71.49 52.39,73.09 52.25,74.69 52.14,76.13 52.02,77.56 51.89,78.86 51.76,80.16 51.60,81.51 51.45,82.86 51.37,84.03 51.29,85.20 51.21,86.45 51.13,87.71 51.09,89.06 51.05,90.41 51.06,91.49 51.07,92.57 51.07,93.52 51.06,94.46 51.01,95.58 50.96,96.70 50.88,97.55 50.79,98.40 50.72,99.18 50.65,99.96 50.57,100.57 50.49,101.19 50.39,101.79 50.29,102.40 50.26,102.97 50.22,103.55 50.17,104.57 50.12,105.58 50.11,105.66 50.10,105.74 50.07,105.81 50.04,105.89 49.99,105.95 49.95,106.02 49.89,106.07 49.83,106.12 49.76,106.15 49.68,106.19 49.61,106.21 49.53,106.22 49.45,106.22 49.37,106.22 49.30,106.20 49.22,106.18 49.15,106.14 49.08,106.10 49.02,106.05 48.96,106.00 48.92,105.93 48.88,105.86 48.85,105.79 48.82,105.72 48.81,105.64 48.81,105.56 48.99,105.27 49.18,104.98 49.29,104.95 49.39,104.92 49.49,104.92 49.60,104.93 49.70,104.97 49.80,105.01 49.88,105.07 49.96,105.14 50.02,105.23 50.07,105.32 50.10,105.43 50.12,105.53 50.11,105.64 50.10,105.74 50.05,105.84 50.01,105.93 49.94,106.01 49.86,106.09 49.77,106.14 49.68,106.19 49.57,106.21 49.47,106.23 49.36,106.21 49.26,106.19 49.16,106.15 49.07,106.10 49.00,106.02 48.92,105.94 48.88,105.85 48.83,105.75 48.82,105.65 48.81,105.54 48.83,105.44 48.85,105.33 48.91,105.24 48.96,105.15 49.04,105.08 49.12,105.01 49.22,104.97 49.32,104.93 49.42,104.92 49.53,104.92 49.63,104.94 49.73,104.97 49.82,105.03 49.91,105.09 49.98,105.17 50.04,105.26 50.08,105.36 50.11,105.46 50.11,105.57 50.11,105.67 50.08,105.77 50.05,105.87 49.98,105.96 49.92,106.04 50.02,105.81 50.12,105.58 50.11,105.66 50.10,105.74 50.07,105.81 50.04,105.89 49.99,105.95 49.95,106.02 49.89,106.07 49.83,106.12 49.76,106.15 49.68,106.19 49.61,106.21 49.53,106.22 49.45,106.22 49.37,106.22 49.30,106.20 49.22,106.18 49.15,106.14 49.08,106.10 49.02,106.05 48.96,106.00 48.92,105.93 48.88,105.86 48.85,105.79 48.82,105.72 48.81,105.64 48.81,105.56 47.76,104.48 46.72,103.40 46.77,102.61 46.82,101.82 46.91,101.28 47.00,100.74 47.07,100.20 47.13,99.65 47.21,98.84 47.28,98.03 47.36,97.29 47.44,96.55 47.48,95.49 47.53,94.44 47.53,93.53 47.54,92.62 47.53,91.46 47.51,90.30 47.56,88.89 47.60,87.49 47.68,86.22 47.76,84.95 47.85,83.71 47.94,82.46 48.09,81.14 48.24,79.81 48.37,78.54 48.50,77.28 48.61,75.84 48.73,74.40 48.85,72.90 48.98,71.41 49.02,69.88 49.05,68.35 49.01,66.93 48.97,65.52 48.59,65.09 48.21,64.66 47.69,64.44 47.16,64.22 46.52,63.77 45.87,63.33 45.55,62.58 45.23,61.82 45.43,60.97 45.62,60.12 46.06,59.63 46.51,59.14 47.08,58.72 47.66,58.30 48.42,57.80 49.19,57.29 50.20,56.71 51.22,56.13 50.69,55.89 50.16,55.64 49.24,55.40 48.31,55.17 47.17,54.90 46.03,54.63 44.85,54.34 43.67,54.05 42.65,53.37 41.62,52.69 41.46,51.45 41.31,50.20 41.82,49.54 42.34,48.89 43.01,48.39 43.67,47.90 44.62,47.28 45.58,46.66 46.62,46.04 47.66,45.42 48.43,44.71 49.21,44.00 49.26,45.11 49.31,46.23 48.78,46.10 48.25,45.96 47.19,45.77 46.13,45.57 44.97,45.33 43.82,45.08 42.54,44.70 41.26,44.32 40.42,43.61 39.58,42.89 39.50,41.75 39.41,40.62 39.85,39.98 40.30,39.34 40.88,38.83 41.45,38.32 42.16,37.78 42.88,37.24 44.04,36.45 45.20,35.67 45.78,35.27 46.36,34.88 47.49,35.64 48.61,36.41 48.60,36.62 48.59,36.82 48.53,37.02 48.46,37.22 48.36,37.40 48.25,37.58 48.11,37.72 47.96,37.87 47.78,37.98 47.61,38.09 47.41,38.15 47.21,38.21 47.00,38.23 46.80,38.24 46.59,38.21 46.39,38.17 46.20,38.09 46.01,38.00 45.84,37.87 45.68,37.75 45.55,37.58 45.42,37.42 45.33,37.23 45.25,37.04 45.21,36.84 45.17,36.64 46.88,36.52 48.59,36.41 48.58,36.62 48.57,36.82 48.51,37.02 48.45,37.21 48.35,37.39 48.24,37.57 48.10,37.71 47.95,37.86 47.77,37.97 47.60,38.08 47.40,38.14 47.21,38.20 47.00,38.22 46.80,38.23 46.59,38.19 46.39,38.16 46.20,38.07 46.01,37.99 45.85,37.86 45.69,37.74 45.56,37.58 45.43,37.42 45.35,37.23 45.26,37.04 45.22,36.84 45.18,36.64 45.19,36.54 45.19,36.43 45.17,35.82 45.14,35.20 45.08,34.62 45.02,34.03 45.02,33.04 45.01,32.05 45.09,31.25 45.17,30.46 45.30,29.25 45.42,28.05 45.54,26.77 45.65,25.48 45.61,24.54 45.57,23.60 45.56,22.68 45.55,21.75 45.51,20.72 45.47,19.68 45.42,18.11 45.37,16.53 45.38,14.78 45.39,13.03 45.42,11.19 45.45,9.35 45.47,7.21 45.49,5.07 45.56,3.67 45.63,2.28 45.78,1.02 45.92,-0.22 46.08,-1.19 46.24,-2.16 46.50,-3.32 46.75,-4.49 46.95,-5.24 47.16,-5.99 47.43,-6.51 47.71,-7.02 47.89,-7.15 48.07,-7.27 48.27,-7.35 48.47,-7.43 48.68,-7.46 48.90,-7.49 49.12,-7.47 49.33,-7.45 49.54,-7.37 49.74,-7.30 49.92,-7.18 50.10,-7.06 50.25,-6.90 50.39,-6.74 50.50,-6.55 50.60,-6.36 50.66,-6.15 50.71,-5.94 50.72,-5.72 50.72,-5.50 50.67,-5.29 50.62,-5.08 50.52,-4.89 50.43,-4.69 50.28,-4.53 50.14,-4.36 50.13,-4.35 50.12,-4.34 49.50,-4.12 48.87,-3.89 48.16,-3.79 47.44,-3.68 46.82,-3.63 46.19,-3.59 45.39,-3.56 44.59,-3.53 43.75,-3.55 42.90,-3.56 41.98,-3.60 41.07,-3.64 40.14,-3.65 39.22,-3.67 38.23,-3.70 37.24,-3.72 36.29,-3.59 35.33,-3.47 33.98,-3.33 32.63,-3.18 31.14,-3.16 29.66,-3.14 28.00,-3.06 26.35,-2.99 24.58,-2.84 22.82,-2.70 21.38,-2.51 19.94,-2.32 18.74,-2.05 17.55,-1.78 16.08,-1.45 14.62,-1.12 12.79,-0.76 10.96,-0.40 9.03,-0.15 7.09,0.09 5.38,0.46 3.67,0.82 2.03,1.11 0.39,1.40 0.21,1.43 0.04,1.46 -0.13,1.44 -0.30,1.43 -0.47,1.37 -0.64,1.31 -0.78,1.22 -0.93,1.12 -1.05,0.99 -1.17,0.86 -1.26,0.71 -1.35,0.56 -1.39,0.39 -1.44,0.22 -1.45,0.04 -1.45,-0.13 -1.42,-0.30 -1.38,-0.47 -1.30,-0.63 -1.22,-0.79 -1.11,-0.92 -1.00,-1.06 -0.86,-1.17 -0.71,-1.27 -0.55,-1.34 -0.39,-1.40 -0.39,-1.40 L -0.39,-1.40 Z"></path></g><g transform="translate(94.788330078125 129.50445556640625) rotate(0 24.546310424804688 38.01416015625)" stroke="none"><path fill="#1e1e1e" d="M -0.09,-0.91 Q -0.09,-0.91 0.69,-1.37 1.48,-1.84 2.43,-1.97 3.38,-2.11 4.81,-2.26 6.24,-2.41 7.89,-2.51 9.53,-2.62 11.30,-2.61 13.07,-2.61 15.03,-2.52 17.00,-2.43 18.92,-2.33 20.84,-2.23 22.40,-2.18 23.96,-2.13 25.38,-2.05 26.79,-1.98 27.81,-1.94 28.82,-1.90 29.72,-1.86 30.61,-1.82 31.52,-1.76 32.42,-1.69 33.50,-1.63 34.58,-1.56 35.52,-1.52 36.47,-1.48 37.36,-1.47 38.24,-1.45 39.05,-1.45 39.85,-1.44 40.55,-1.43 41.25,-1.43 41.87,-1.42 42.49,-1.40 43.47,-1.39 44.46,-1.39 45.09,-1.38 45.72,-1.38 46.72,-1.38 47.72,-1.38 46.75,-1.49 45.79,-1.61 45.98,-1.71 46.16,-1.80 46.37,-1.85 46.57,-1.90 46.79,-1.90 47.00,-1.89 47.20,-1.84 47.40,-1.79 47.59,-1.69 47.78,-1.59 47.93,-1.45 48.09,-1.31 48.21,-1.13 48.33,-0.96 48.40,-0.76 48.47,-0.56 48.50,-0.35 48.52,-0.14 48.49,0.05 48.46,0.26 48.39,0.46 48.31,0.66 48.19,0.83 48.07,1.00 47.91,1.14 47.75,1.28 46.77,-0.17 45.79,-1.63 45.98,-1.72 46.17,-1.82 46.37,-1.87 46.58,-1.92 46.79,-1.91 47.00,-1.91 47.21,-1.86 47.41,-1.81 47.60,-1.71 47.78,-1.61 47.94,-1.47 48.10,-1.32 48.22,-1.15 48.34,-0.97 48.41,-0.77 48.48,-0.58 48.51,-0.37 48.53,-0.15 48.50,0.05 48.47,0.26 48.40,0.45 48.32,0.65 48.20,0.82 48.08,1.00 47.92,1.14 47.76,1.27 48.09,0.82 48.43,0.38 48.17,0.94 47.92,1.51 47.62,2.54 47.32,3.57 47.21,4.97 47.10,6.36 47.05,7.88 47.00,9.40 47.02,10.46 47.03,11.52 47.05,12.45 47.06,13.38 47.07,14.15 47.08,14.93 47.07,15.62 47.07,16.32 47.07,16.90 47.07,17.49 47.11,18.47 47.15,19.46 47.20,20.23 47.26,20.99 46.75,22.13 46.24,23.27 45.59,23.64 44.94,24.02 44.44,24.26 43.95,24.50 43.34,24.79 42.74,25.08 42.29,24.14 41.84,23.20 42.82,23.57 43.80,23.94 44.95,24.24 46.09,24.54 46.85,24.74 47.61,24.93 48.27,25.18 48.93,25.43 49.58,26.44 50.22,27.45 49.95,28.60 49.69,29.75 48.41,31.02 47.13,32.30 45.87,33.21 44.61,34.13 43.84,34.74 43.07,35.34 42.50,35.05 41.93,34.76 42.48,34.89 43.04,35.02 43.76,35.27 44.48,35.51 45.16,35.69 45.84,35.87 46.54,36.03 47.25,36.19 47.97,36.45 48.70,36.70 49.39,37.76 50.09,38.83 49.78,40.12 49.46,41.42 48.33,42.61 47.19,43.81 46.13,44.62 45.06,45.43 44.09,45.95 43.12,46.46 42.64,46.80 42.15,47.13 41.95,47.20 41.75,47.27 41.54,47.29 41.33,47.31 41.12,47.28 40.91,47.25 40.72,47.17 40.52,47.09 40.35,46.97 40.18,46.85 40.04,46.68 39.91,46.52 39.81,46.33 39.72,46.14 39.67,45.94 39.63,45.73 39.63,45.52 39.64,45.31 39.69,45.10 39.75,44.90 39.85,44.72 39.95,44.53 40.10,44.38 40.24,44.22 40.42,44.10 40.59,43.99 41.93,44.06 43.28,44.13 43.90,44.12 44.53,44.12 45.31,44.19 46.09,44.27 46.73,44.38 47.38,44.49 48.52,44.99 49.65,45.49 50.02,46.19 50.39,46.89 50.39,47.69 50.40,48.50 50.29,49.31 50.17,50.11 50.02,51.31 49.87,52.50 49.77,53.53 49.66,54.57 49.55,55.80 49.44,57.04 49.29,58.73 49.14,60.42 49.02,62.07 48.89,63.72 48.77,65.50 48.65,67.28 48.57,69.08 48.48,70.87 48.45,71.95 48.43,73.04 48.43,73.82 48.43,74.61 48.44,75.15 48.44,75.69 48.35,76.21 48.25,76.74 48.23,76.93 48.21,77.12 48.14,77.30 48.08,77.48 47.97,77.64 47.86,77.80 47.72,77.93 47.58,78.05 47.41,78.15 47.24,78.24 47.06,78.29 46.87,78.33 46.68,78.34 46.49,78.34 46.30,78.30 46.11,78.25 45.94,78.17 45.77,78.08 45.63,77.95 45.48,77.83 45.37,77.67 45.26,77.51 45.19,77.34 45.12,77.16 45.09,76.97 45.07,76.78 45.28,76.22 45.49,75.65 45.84,73.96 46.19,72.26 46.21,72.16 46.23,72.05 46.28,71.96 46.33,71.87 46.40,71.79 46.48,71.72 46.58,71.68 46.68,71.63 46.78,71.62 46.89,71.61 46.99,71.63 47.09,71.66 47.18,71.71 47.28,71.77 47.34,71.85 47.41,71.93 47.45,72.03 47.49,72.13 47.49,72.24 47.50,72.34 47.47,72.44 47.44,72.55 47.38,72.63 47.32,72.72 47.24,72.78 47.15,72.85 47.05,72.88 46.95,72.92 46.84,72.91 46.74,72.91 46.64,72.88 46.54,72.84 46.45,72.78 46.37,72.72 46.31,72.63 46.25,72.54 46.22,72.44 46.19,72.33 46.20,72.23 46.21,72.12 46.25,72.02 46.29,71.92 46.36,71.84 46.43,71.76 46.52,71.71 46.61,71.66 46.71,71.63 46.82,71.61 46.92,71.62 47.03,71.63 47.12,71.68 47.22,71.73 47.30,71.80 47.37,71.87 47.42,71.97 47.47,72.06 47.49,72.17 47.50,72.27 47.50,72.27 47.50,72.27 47.88,74.50 48.25,76.74 48.23,76.93 48.21,77.12 48.14,77.30 48.08,77.48 47.97,77.64 47.86,77.80 47.72,77.93 47.58,78.05 47.41,78.15 47.24,78.24 47.06,78.29 46.87,78.33 46.68,78.34 46.49,78.34 46.30,78.30 46.11,78.25 45.94,78.17 45.77,78.08 45.63,77.95 45.48,77.83 45.37,77.67 45.26,77.51 45.19,77.34 45.12,77.16 45.09,76.97 45.07,76.78 44.96,76.27 44.85,75.76 44.84,75.18 44.82,74.60 44.83,73.77 44.83,72.94 44.86,71.82 44.89,70.69 44.98,68.87 45.08,67.04 45.20,65.25 45.32,63.45 45.45,61.78 45.57,60.11 45.72,58.41 45.87,56.71 45.99,55.46 46.10,54.20 46.21,53.13 46.32,52.05 46.47,50.83 46.63,49.61 46.70,48.77 46.77,47.93 46.25,47.83 45.73,47.74 45.11,47.67 44.50,47.60 43.32,47.37 42.15,47.13 41.95,47.20 41.75,47.27 41.54,47.29 41.33,47.31 41.12,47.28 40.91,47.25 40.72,47.17 40.52,47.09 40.35,46.97 40.18,46.85 40.04,46.68 39.91,46.52 39.81,46.33 39.72,46.14 39.67,45.94 39.63,45.73 39.63,45.52 39.64,45.31 39.69,45.10 39.75,44.90 39.85,44.72 39.95,44.53 40.10,44.38 40.24,44.22 40.42,44.10 40.59,43.99 40.53,43.97 40.47,43.96 40.98,43.63 41.49,43.30 42.21,42.94 42.94,42.58 43.84,41.92 44.73,41.27 45.59,40.42 46.45,39.58 45.70,39.40 44.94,39.22 44.13,38.99 43.31,38.77 42.29,38.39 41.27,38.01 40.51,37.36 39.74,36.70 39.75,35.24 39.77,33.78 40.35,33.19 40.92,32.59 41.76,31.95 42.59,31.31 43.69,30.54 44.78,29.77 45.76,29.02 46.75,28.28 45.99,28.09 45.23,27.89 43.99,27.58 42.74,27.27 41.13,26.48 39.52,25.69 39.85,24.08 40.19,22.48 40.70,22.19 41.22,21.90 41.85,21.60 42.49,21.30 43.15,21.01 43.82,20.72 44.38,20.65 44.94,20.58 44.40,20.91 43.86,21.25 43.80,20.45 43.74,19.65 43.71,19.12 43.69,18.58 43.67,18.04 43.66,17.50 43.65,16.91 43.65,16.33 43.64,15.64 43.64,14.96 43.63,14.20 43.62,13.44 43.61,12.50 43.60,11.57 43.58,10.43 43.57,9.29 43.62,7.68 43.67,6.08 43.81,4.41 43.96,2.74 44.17,1.89 44.39,1.04 44.73,0.24 45.07,-0.55 45.43,-1.09 45.79,-1.63 45.98,-1.72 46.17,-1.82 46.37,-1.87 46.58,-1.92 46.79,-1.91 47.00,-1.91 47.21,-1.86 47.41,-1.81 47.60,-1.71 47.78,-1.61 47.94,-1.47 48.10,-1.32 48.22,-1.15 48.34,-0.97 48.41,-0.77 48.48,-0.58 48.51,-0.37 48.53,-0.15 48.50,0.05 48.47,0.26 48.40,0.45 48.32,0.65 48.20,0.82 48.08,1.00 47.92,1.13 47.76,1.27 46.77,-0.16 45.79,-1.61 45.98,-1.70 46.16,-1.80 46.37,-1.85 46.57,-1.90 46.79,-1.90 47.00,-1.89 47.20,-1.84 47.40,-1.79 47.59,-1.69 47.78,-1.59 47.93,-1.45 48.09,-1.31 48.21,-1.13 48.33,-0.96 48.40,-0.76 48.47,-0.56 48.50,-0.35 48.52,-0.14 48.49,0.05 48.46,0.26 48.39,0.46 48.31,0.66 48.19,0.83 48.07,1.00 47.91,1.14 47.75,1.28 46.78,1.15 45.81,1.03 46.82,1.11 47.84,1.20 47.27,1.61 46.70,2.02 45.95,2.12 45.20,2.22 44.36,2.22 43.52,2.22 42.97,2.21 42.42,2.21 41.83,2.20 41.23,2.19 40.53,2.19 39.82,2.18 39.00,2.17 38.18,2.17 37.25,2.15 36.32,2.13 35.33,2.09 34.35,2.05 33.25,1.98 32.16,1.90 31.31,1.84 30.45,1.78 29.56,1.74 28.67,1.69 27.63,1.65 26.60,1.60 25.22,1.52 23.83,1.45 22.24,1.39 20.64,1.33 18.73,1.22 16.82,1.12 14.93,1.02 13.04,0.92 11.39,0.90 9.74,0.88 8.15,0.97 6.57,1.05 5.18,1.17 3.79,1.28 2.82,1.38 1.84,1.48 0.97,1.19 0.09,0.91 -0.01,0.90 -0.12,0.90 -0.22,0.88 -0.33,0.85 -0.43,0.80 -0.52,0.74 -0.61,0.67 -0.69,0.59 -0.75,0.50 -0.81,0.41 -0.85,0.31 -0.89,0.20 -0.90,0.09 -0.91,-0.01 -0.90,-0.12 -0.88,-0.23 -0.84,-0.33 -0.80,-0.43 -0.74,-0.52 -0.67,-0.61 -0.59,-0.68 -0.51,-0.76 -0.41,-0.81 -0.31,-0.86 -0.20,-0.88 -0.09,-0.91 -0.09,-0.91 L -0.09,-0.91 Z"></path></g><g transform="translate(141.64547729492188 128.36160278320312) rotate(0 19.333328247070312 -1.7332611083984375)" stroke="none"><path fill="#1e1e1e" d="M -0.08,-1.36 Q -0.08,-1.36 2.55,-1.73 5.20,-2.10 7.74,-2.29 10.29,-2.48 12.36,-2.53 14.43,-2.58 16.07,-2.62 17.70,-2.66 19.19,-2.72 20.68,-2.78 22.11,-2.93 23.55,-3.09 25.04,-3.31 26.52,-3.54 27.66,-3.61 28.80,-3.69 29.52,-3.72 30.24,-3.76 30.85,-3.77 31.46,-3.78 32.43,-3.86 33.40,-3.93 33.97,-4.00 34.54,-4.06 36.27,-3.85 38.00,-3.64 38.07,-3.72 38.14,-3.80 38.23,-3.85 38.32,-3.90 38.43,-3.92 38.53,-3.94 38.64,-3.93 38.74,-3.91 38.84,-3.86 38.93,-3.82 39.01,-3.74 39.08,-3.67 39.13,-3.57 39.18,-3.48 39.19,-3.37 39.20,-3.26 39.18,-3.16 39.16,-3.06 39.11,-2.96 39.06,-2.87 38.98,-2.80 38.90,-2.73 38.80,-2.69 38.70,-2.65 38.60,-2.64 38.49,-2.63 38.39,-2.66 38.29,-2.68 38.20,-2.74 38.11,-2.80 38.04,-2.88 37.98,-2.96 37.94,-3.06 37.90,-3.16 37.90,-3.27 37.90,-3.37 37.93,-3.48 37.96,-3.58 38.02,-3.66 38.08,-3.75 38.17,-3.81 38.26,-3.87 38.36,-3.90 38.46,-3.94 38.57,-3.93 38.67,-3.93 38.77,-3.89 38.87,-3.85 38.96,-3.79 39.04,-3.72 39.09,-3.63 39.15,-3.54 39.18,-3.44 39.20,-3.34 39.19,-3.23 39.18,-3.12 39.14,-3.03 39.10,-2.93 39.10,-2.93 39.10,-2.93 37.03,-1.68 34.96,-0.43 34.33,-0.36 33.71,-0.29 33.17,-0.25 32.63,-0.20 32.06,-0.18 31.50,-0.15 30.96,-0.15 30.42,-0.15 29.72,-0.11 29.01,-0.08 28.04,-0.03 27.06,0.02 25.49,0.25 23.92,0.49 22.37,0.64 20.82,0.80 19.30,0.86 17.77,0.92 16.14,0.95 14.51,0.98 12.53,1.02 10.55,1.05 7.99,1.23 5.42,1.40 2.75,1.38 0.08,1.36 -0.07,1.35 -0.24,1.34 -0.39,1.29 -0.55,1.25 -0.69,1.16 -0.83,1.08 -0.95,0.96 -1.07,0.84 -1.15,0.70 -1.24,0.56 -1.29,0.41 -1.34,0.25 -1.35,0.08 -1.36,-0.07 -1.33,-0.23 -1.30,-0.40 -1.24,-0.55 -1.17,-0.70 -1.07,-0.83 -0.97,-0.96 -0.84,-1.06 -0.71,-1.16 -0.56,-1.23 -0.41,-1.30 -0.25,-1.33 -0.08,-1.36 -0.08,-1.36 L -0.08,-1.36 Z"></path></g><g transform="translate(179.81695556640625 89.27603149414062) rotate(0 -0.666656494140625 18.422439575195312)" stroke="none"><path fill="#1e1e1e" d="M 1.45,0.04 Q 1.45,0.04 1.46,2.90 1.47,5.77 1.37,8.63 1.28,11.50 1.22,14.18 1.17,16.85 1.10,19.47 1.03,22.09 0.94,24.39 0.86,26.70 0.78,28.73 0.70,30.75 0.65,32.10 0.60,33.44 0.57,34.26 0.53,35.08 0.45,35.82 0.36,36.55 0.21,36.59 0.06,36.64 0.04,36.80 0.01,36.96 -0.05,37.12 -0.11,37.27 -0.21,37.40 -0.31,37.54 -0.44,37.64 -0.57,37.75 -0.72,37.82 -0.87,37.89 -1.03,37.92 -1.20,37.95 -1.36,37.95 -1.53,37.94 -1.69,37.89 -1.85,37.85 -1.99,37.76 -2.14,37.68 -2.26,37.56 -2.38,37.45 -2.47,37.31 -2.55,37.17 -2.61,37.01 -2.66,36.85 -2.67,36.68 -2.68,36.52 -2.29,34.79 -1.89,33.07 -1.87,32.96 -1.85,32.86 -1.79,32.77 -1.74,32.68 -1.66,32.61 -1.58,32.54 -1.48,32.49 -1.39,32.45 -1.28,32.45 -1.17,32.44 -1.07,32.46 -0.97,32.49 -0.88,32.55 -0.79,32.61 -0.72,32.69 -0.66,32.77 -0.62,32.87 -0.59,32.97 -0.58,33.08 -0.58,33.18 -0.61,33.29 -0.65,33.39 -0.71,33.47 -0.77,33.56 -0.86,33.62 -0.94,33.68 -1.05,33.71 -1.15,33.74 -1.25,33.74 -1.36,33.74 -1.46,33.70 -1.56,33.66 -1.64,33.59 -1.72,33.53 -1.78,33.44 -1.84,33.35 -1.86,33.24 -1.89,33.14 -1.88,33.03 -1.87,32.93 -1.83,32.83 -1.78,32.73 -1.71,32.66 -1.64,32.58 -1.55,32.52 -1.45,32.47 -1.35,32.45 -1.25,32.43 -1.14,32.45 -1.03,32.46 -0.94,32.51 -0.85,32.56 -0.77,32.64 -0.70,32.71 -0.65,32.81 -0.60,32.90 -0.59,33.01 -0.58,33.11 -0.58,33.11 -0.58,33.11 -0.25,34.87 0.06,36.64 0.04,36.80 0.01,36.96 -0.05,37.12 -0.11,37.27 -0.21,37.40 -0.31,37.54 -0.44,37.64 -0.57,37.75 -0.72,37.82 -0.87,37.89 -1.03,37.92 -1.20,37.95 -1.36,37.95 -1.53,37.94 -1.69,37.89 -1.85,37.85 -1.99,37.76 -2.14,37.68 -2.26,37.56 -2.38,37.45 -2.47,37.31 -2.55,37.17 -2.61,37.01 -2.66,36.85 -2.67,36.68 -2.68,36.52 -2.80,36.45 -2.92,36.39 -2.94,35.66 -2.95,34.92 -2.91,34.11 -2.87,33.29 -2.81,31.95 -2.74,30.61 -2.65,28.58 -2.55,26.55 -2.44,24.27 -2.33,21.99 -2.24,19.39 -2.16,16.78 -2.09,14.08 -2.03,11.39 -1.93,8.52 -1.83,5.66 -1.64,2.80 -1.45,-0.04 -1.42,-0.21 -1.40,-0.39 -1.33,-0.55 -1.26,-0.71 -1.16,-0.85 -1.05,-0.99 -0.92,-1.11 -0.78,-1.22 -0.63,-1.30 -0.47,-1.37 -0.30,-1.41 -0.12,-1.44 0.04,-1.44 0.22,-1.43 0.39,-1.39 0.55,-1.34 0.71,-1.25 0.86,-1.17 0.99,-1.05 1.11,-0.92 1.21,-0.78 1.30,-0.63 1.36,-0.46 1.42,-0.30 1.43,-0.12 1.45,0.04 1.45,0.04 L 1.45,0.04 Z"></path></g><g transform="translate(179.47393798828125 58.228424072265625) rotate(0 -1.05670166015625 14.971359252929688)" stroke="none"><path fill="#1e1e1e" d="M 0.38,1.16 Q 0.38,1.16 -0.64,1.68 -1.67,2.20 -2.20,1.72 -2.73,1.24 -2.28,2.89 -1.84,4.53 -1.30,5.30 -0.76,6.08 -0.30,6.48 0.16,6.88 1.15,7.65 2.14,8.41 2.33,9.39 2.52,10.37 1.63,11.73 0.75,13.10 -0.01,13.89 -0.77,14.68 -1.33,15.21 -1.89,15.74 -0.96,16.19 -0.04,16.63 0.58,16.99 1.22,17.34 1.85,18.36 2.48,19.38 2.26,20.87 2.04,22.36 1.24,23.84 0.44,25.31 -0.18,26.24 -0.80,27.17 -1.19,27.77 -1.59,28.37 0.77,28.78 3.14,29.20 3.24,29.22 3.35,29.24 3.44,29.29 3.53,29.34 3.60,29.42 3.68,29.50 3.72,29.59 3.76,29.69 3.77,29.80 3.78,29.90 3.76,30.00 3.73,30.11 3.68,30.20 3.62,30.29 3.54,30.36 3.45,30.42 3.35,30.46 3.26,30.50 3.15,30.50 3.04,30.51 2.94,30.48 2.84,30.44 2.75,30.38 2.67,30.32 2.60,30.24 2.54,30.15 2.51,30.05 2.48,29.95 2.48,29.84 2.48,29.74 2.52,29.64 2.55,29.54 2.62,29.45 2.68,29.37 2.77,29.31 2.86,29.25 2.96,29.23 3.07,29.20 3.17,29.21 3.28,29.22 3.38,29.26 3.47,29.30 3.55,29.37 3.63,29.44 3.69,29.53 3.74,29.62 3.76,29.73 3.78,29.83 3.77,29.94 3.76,30.04 3.71,30.14 3.66,30.23 3.59,30.31 3.51,30.38 3.42,30.43 3.32,30.48 3.22,30.50 3.11,30.51 3.11,30.51 3.11,30.51 0.90,30.85 -1.30,31.18 -2.21,31.10 -3.12,31.02 -3.90,30.45 -4.67,29.89 -4.92,28.94 -5.17,28.00 -4.92,27.19 -4.66,26.37 -4.23,25.73 -3.80,25.08 -3.24,24.30 -2.68,23.52 -2.03,22.45 -1.37,21.38 -1.42,20.56 -1.47,19.73 -2.13,19.41 -2.79,19.10 -3.44,18.67 -4.08,18.25 -4.68,17.41 -5.28,16.56 -5.22,15.56 -5.16,14.56 -4.71,13.92 -4.26,13.27 -3.74,12.77 -3.22,12.28 -2.57,11.63 -1.93,10.99 -1.36,10.60 -0.79,10.22 -1.47,9.75 -2.15,9.29 -2.85,8.57 -3.54,7.84 -4.28,6.57 -5.02,5.29 -5.34,3.41 -5.65,1.53 -4.15,0.38 -2.65,-0.76 -1.52,-0.96 -0.38,-1.16 -0.24,-1.19 -0.09,-1.22 0.05,-1.21 0.19,-1.21 0.34,-1.17 0.48,-1.13 0.61,-1.05 0.74,-0.98 0.84,-0.87 0.95,-0.77 1.03,-0.65 1.11,-0.52 1.15,-0.38 1.20,-0.24 1.21,-0.09 1.22,0.05 1.20,0.19 1.18,0.34 1.12,0.48 1.06,0.61 0.97,0.73 0.88,0.85 0.77,0.94 0.65,1.04 0.52,1.10 0.38,1.16 0.38,1.16 L 0.38,1.16 Z"></path></g><g transform="translate(179.81695556640625 25.313995361328125) rotate(0 -0.03814697265625 13.18487548828125)" stroke="none"><path fill="#1e1e1e" d="M -0.72,-0.02 Q -0.72,-0.02 -1.06,-0.86 -1.40,-1.69 -1.42,-2.12 -1.44,-2.55 -1.41,-2.73 -1.38,-2.91 -1.31,-3.08 -1.23,-3.26 -1.12,-3.40 -1.01,-3.55 -0.87,-3.67 -0.73,-3.79 -0.56,-3.86 -0.39,-3.94 -0.21,-3.98 -0.03,-4.02 0.15,-4.01 0.33,-4.00 0.51,-3.95 0.69,-3.90 0.85,-3.81 1.01,-3.72 1.14,-3.59 1.27,-3.46 1.37,-3.30 1.47,-3.15 1.53,-2.97 1.59,-2.80 1.60,-2.61 1.62,-2.43 1.60,-1.64 1.57,-0.86 1.65,0.19 1.72,1.24 1.79,2.90 1.86,4.57 1.80,7.37 1.74,10.17 1.62,13.11 1.50,16.05 1.34,18.44 1.19,20.83 1.13,22.34 1.08,23.86 1.10,24.77 1.12,25.68 1.19,26.34 1.26,27.01 1.40,27.75 1.54,28.49 1.52,28.82 1.51,29.14 1.51,29.33 1.51,29.51 1.46,29.69 1.42,29.87 1.34,30.03 1.25,30.19 1.13,30.33 1.01,30.46 0.86,30.57 0.71,30.67 0.54,30.74 0.37,30.81 0.19,30.83 0.01,30.85 -0.16,30.83 -0.35,30.81 -0.52,30.74 -0.69,30.68 -0.84,30.58 -0.99,30.47 -1.11,30.34 -1.23,30.20 -1.32,30.04 -1.40,29.88 -1.45,29.70 -1.49,29.52 -0.82,27.38 -0.15,25.24 -0.12,25.14 -0.08,25.04 -0.02,24.95 0.03,24.87 0.12,24.81 0.20,24.74 0.30,24.71 0.40,24.68 0.51,24.68 0.62,24.69 0.72,24.72 0.82,24.76 0.90,24.83 0.98,24.89 1.04,24.98 1.10,25.07 1.12,25.17 1.15,25.28 1.14,25.38 1.13,25.49 1.09,25.59 1.05,25.68 0.98,25.76 0.91,25.84 0.81,25.89 0.72,25.95 0.62,25.97 0.51,25.99 0.41,25.97 0.30,25.96 0.21,25.91 0.11,25.87 0.04,25.79 -0.03,25.72 -0.08,25.62 -0.12,25.52 -0.14,25.42 -0.15,25.31 -0.13,25.21 -0.11,25.11 -0.06,25.01 -0.01,24.92 0.06,24.85 0.14,24.78 0.24,24.74 0.33,24.69 0.44,24.69 0.55,24.68 0.65,24.70 0.75,24.73 0.84,24.78 0.93,24.84 1.00,24.92 1.07,25.01 1.10,25.11 1.14,25.21 1.14,25.31 1.15,25.42 1.15,25.42 1.15,25.42 1.33,27.28 1.51,29.14 1.51,29.33 1.51,29.51 1.46,29.69 1.42,29.87 1.34,30.03 1.25,30.19 1.13,30.33 1.01,30.46 0.86,30.57 0.71,30.67 0.54,30.74 0.37,30.81 0.19,30.83 0.01,30.85 -0.16,30.83 -0.34,30.81 -0.52,30.74 -0.69,30.68 -0.84,30.58 -0.99,30.47 -1.11,30.34 -1.23,30.20 -1.32,30.04 -1.40,29.88 -1.45,29.70 -1.49,29.52 -1.66,28.99 -1.83,28.46 -1.93,27.88 -2.03,27.29 -2.09,26.51 -2.15,25.73 -2.15,24.72 -2.16,23.72 -2.08,22.16 -2.00,20.61 -1.82,18.26 -1.65,15.91 -1.52,13.01 -1.39,10.11 -1.35,7.40 -1.30,4.70 -1.37,3.06 -1.43,1.42 -1.49,0.20 -1.55,-1.01 -1.49,-1.78 -1.44,-2.55 -1.41,-2.73 -1.38,-2.91 -1.31,-3.08 -1.23,-3.26 -1.12,-3.40 -1.01,-3.55 -0.87,-3.67 -0.73,-3.79 -0.56,-3.86 -0.39,-3.94 -0.21,-3.98 -0.03,-4.02 0.15,-4.01 0.33,-4.00 0.51,-3.95 0.69,-3.90 0.85,-3.81 1.01,-3.72 1.14,-3.59 1.27,-3.46 1.37,-3.30 1.47,-3.15 1.53,-2.97 1.59,-2.80 1.60,-2.61 1.62,-2.43 1.57,-2.00 1.53,-1.58 1.13,-0.77 0.72,0.02 0.71,0.11 0.70,0.20 0.66,0.28 0.63,0.36 0.57,0.43 0.52,0.50 0.45,0.56 0.39,0.61 0.31,0.65 0.23,0.69 0.14,0.70 0.05,0.72 -0.02,0.72 -0.11,0.72 -0.20,0.69 -0.28,0.67 -0.36,0.62 -0.43,0.58 -0.50,0.52 -0.56,0.46 -0.61,0.38 -0.65,0.31 -0.68,0.22 -0.71,0.14 -0.72,0.05 -0.72,-0.02 -0.72,-0.02 L -0.72,-0.02 Z"></path></g><g transform="translate(179.7027587890625 21.885406494140625) rotate(0 22.74273681640625 -1.6026611328125)" stroke="none"><path fill="#1e1e1e" d="M -0.25,-1.14 Q -0.25,-1.14 1.11,-1.71 2.49,-2.28 5.17,-2.62 7.86,-2.96 10.46,-3.27 13.05,-3.57 15.48,-3.77 17.91,-3.97 20.02,-4.38 22.13,-4.79 24.26,-5.04 26.39,-5.30 27.96,-5.33 29.52,-5.36 30.43,-5.39 31.33,-5.42 32.00,-5.43 32.67,-5.44 33.23,-5.40 33.79,-5.37 34.62,-5.22 35.45,-5.06 36.18,-4.98 36.92,-4.90 35.96,-4.47 34.99,-4.04 34.85,-3.97 34.70,-3.90 34.78,-4.09 34.87,-4.28 34.99,-4.44 35.12,-4.60 35.28,-4.73 35.44,-4.86 35.63,-4.94 35.82,-5.03 36.02,-5.07 36.22,-5.11 36.43,-5.10 36.63,-5.08 36.83,-5.02 37.02,-4.96 37.20,-4.86 37.38,-4.75 37.52,-4.61 37.67,-4.46 37.78,-4.29 37.88,-4.11 37.95,-3.92 38.01,-3.72 38.02,-3.51 38.04,-3.31 38.00,-3.11 37.96,-2.90 38.24,-1.86 38.53,-0.81 39.05,0.00 39.58,0.83 40.29,1.25 40.99,1.67 41.84,0.67 42.68,-0.32 42.96,-0.97 43.25,-1.62 42.71,-2.78 42.18,-3.95 41.34,-4.36 40.50,-4.76 39.95,-4.67 39.40,-4.57 38.25,-3.65 37.11,-2.74 37.05,-2.65 36.99,-2.56 36.91,-2.49 36.83,-2.43 36.73,-2.39 36.63,-2.36 36.52,-2.36 36.42,-2.35 36.31,-2.39 36.21,-2.42 36.13,-2.48 36.04,-2.54 35.98,-2.63 35.92,-2.72 35.89,-2.82 35.86,-2.92 35.86,-3.03 35.87,-3.13 35.90,-3.23 35.94,-3.33 36.01,-3.41 36.07,-3.50 36.16,-3.55 36.25,-3.61 36.36,-3.63 36.46,-3.66 36.57,-3.65 36.67,-3.64 36.77,-3.60 36.87,-3.55 36.95,-3.48 37.02,-3.41 37.08,-3.32 37.13,-3.22 37.15,-3.12 37.17,-3.02 37.15,-2.91 37.14,-2.81 37.09,-2.71 37.04,-2.62 36.96,-2.54 36.89,-2.47 36.79,-2.42 36.70,-2.37 36.59,-2.36 36.49,-2.35 36.38,-2.37 36.28,-2.39 36.19,-2.44 36.09,-2.49 36.02,-2.57 35.95,-2.65 35.91,-2.75 35.87,-2.85 35.86,-2.96 35.86,-3.06 35.88,-3.16 35.91,-3.27 35.91,-3.27 35.91,-3.27 37.38,-5.56 38.86,-7.85 40.13,-8.02 41.39,-8.19 42.55,-7.78 43.72,-7.36 44.54,-6.53 45.37,-5.70 46.03,-4.22 46.70,-2.74 46.61,-1.47 46.51,-0.20 45.98,0.85 45.44,1.90 44.58,2.89 43.71,3.87 42.67,4.42 41.62,4.96 40.64,4.91 39.65,4.86 38.88,4.47 38.11,4.08 37.48,3.52 36.84,2.96 36.32,2.24 35.80,1.51 35.48,0.76 35.16,0.01 34.99,-0.72 34.81,-1.45 34.71,-2.13 34.61,-2.81 34.65,-3.36 34.70,-3.90 34.78,-4.09 34.87,-4.28 34.99,-4.44 35.12,-4.60 35.28,-4.73 35.44,-4.86 35.63,-4.94 35.82,-5.03 36.02,-5.07 36.22,-5.11 36.43,-5.10 36.63,-5.08 36.83,-5.02 37.02,-4.96 37.20,-4.86 37.38,-4.75 37.52,-4.61 37.67,-4.46 37.78,-4.29 37.88,-4.11 37.95,-3.92 38.01,-3.72 38.02,-3.51 38.04,-3.31 38.00,-3.11 37.96,-2.90 37.79,-2.75 37.62,-2.60 36.78,-2.06 35.94,-1.52 35.07,-1.64 34.20,-1.77 33.46,-1.84 32.73,-1.91 32.09,-1.90 31.45,-1.88 30.51,-1.85 29.57,-1.82 28.19,-1.80 26.80,-1.79 24.79,-1.56 22.78,-1.33 20.48,-0.91 18.19,-0.48 15.82,-0.30 13.45,-0.12 10.86,0.16 8.27,0.45 5.75,0.73 3.22,1.01 1.74,1.08 0.25,1.14 0.11,1.16 -0.02,1.17 -0.16,1.15 -0.30,1.13 -0.43,1.08 -0.57,1.02 -0.68,0.94 -0.80,0.86 -0.89,0.75 -0.98,0.64 -1.04,0.51 -1.10,0.39 -1.14,0.25 -1.17,0.11 -1.16,-0.02 -1.16,-0.16 -1.12,-0.30 -1.09,-0.44 -1.02,-0.56 -0.95,-0.69 -0.85,-0.79 -0.76,-0.89 -0.64,-0.97 -0.52,-1.05 -0.38,-1.10 -0.25,-1.14 -0.25,-1.14 L -0.25,-1.14 Z"></path></g><g transform="translate(66.02642822265625 12.818817138671875) rotate(0 5.84765625 5.009490966796875)" stroke="none"><path fill="#1e1e1e" d="M 0.56,-1.24 Q 0.56,-1.24 2.38,-0.55 4.20,0.14 5.81,0.87 7.41,1.61 8.47,2.05 9.52,2.49 10.21,2.74 10.90,3.00 11.79,4.06 12.67,5.12 12.54,5.74 12.41,6.36 10.91,7.55 9.41,8.73 8.09,9.37 6.77,10.01 4.79,10.00 2.80,9.98 2.73,10.01 2.66,10.03 2.58,10.04 2.50,10.05 2.42,10.03 2.34,10.02 2.27,9.99 2.19,9.96 2.13,9.91 2.07,9.87 2.02,9.80 1.97,9.74 1.93,9.67 1.90,9.60 1.88,9.52 1.87,9.45 1.87,9.37 1.87,9.29 1.89,9.21 1.91,9.14 1.95,9.07 1.99,9.00 2.05,8.94 2.10,8.88 2.17,8.84 2.23,8.80 2.06,9.02 1.88,9.25 1.92,9.15 1.96,9.05 2.03,8.97 2.10,8.89 2.19,8.83 2.28,8.78 2.38,8.76 2.49,8.73 2.59,8.75 2.70,8.76 2.79,8.80 2.89,8.85 2.97,8.92 3.04,8.99 3.09,9.09 3.14,9.18 3.16,9.29 3.18,9.39 3.16,9.50 3.14,9.60 3.09,9.69 3.04,9.79 2.96,9.86 2.89,9.93 2.79,9.98 2.69,10.02 2.59,10.03 2.48,10.04 2.38,10.02 2.27,10.00 2.18,9.94 2.09,9.89 2.02,9.81 1.96,9.73 1.92,9.63 1.88,9.53 1.87,9.42 1.87,9.32 1.90,9.21 1.92,9.11 1.98,9.02 2.04,8.94 2.13,8.87 2.21,8.81 2.32,8.77 2.42,8.74 2.52,8.74 2.63,8.74 2.73,8.78 2.83,8.81 2.91,8.87 3.00,8.94 3.06,9.03 3.12,9.12 3.14,9.22 3.17,9.32 2.99,9.65 2.81,9.98 2.73,10.01 2.66,10.03 2.58,10.04 2.50,10.05 2.42,10.03 2.34,10.02 2.27,9.99 2.20,9.96 2.13,9.91 2.07,9.87 2.02,9.80 1.97,9.74 1.93,9.67 1.90,9.60 1.88,9.52 1.87,9.45 1.87,9.37 1.87,9.29 1.89,9.21 1.91,9.14 1.95,9.07 1.99,9.00 2.05,8.94 2.10,8.88 2.17,8.84 2.23,8.80 3.73,7.81 5.23,6.83 6.34,6.29 7.46,5.75 8.49,5.19 9.52,4.62 9.60,5.36 9.68,6.09 8.96,5.79 8.25,5.49 7.15,5.02 6.05,4.55 4.47,3.80 2.89,3.05 1.16,2.15 -0.56,1.24 -0.70,1.16 -0.84,1.07 -0.96,0.95 -1.07,0.84 -1.16,0.70 -1.24,0.56 -1.29,0.40 -1.34,0.24 -1.35,0.08 -1.36,-0.08 -1.33,-0.24 -1.30,-0.40 -1.23,-0.55 -1.16,-0.70 -1.06,-0.83 -0.96,-0.96 -0.83,-1.06 -0.70,-1.17 -0.55,-1.23 -0.40,-1.30 -0.24,-1.33 -0.08,-1.36 0.08,-1.35 0.24,-1.34 0.40,-1.29 0.56,-1.24 0.56,-1.24 L 0.56,-1.24 Z"></path></g><g transform="translate(203.20721435546875 10) rotate(0 -3.850799560546875 8.685638427734375)" stroke="none"><path fill="#1e1e1e" d="M 1.01,0.97 Q 1.01,0.97 -0.41,2.67 -1.85,4.37 -3.20,6.02 -4.55,7.67 -5.46,8.88 -6.37,10.09 -6.82,10.75 -7.27,11.40 -6.39,12.14 -5.51,12.88 -4.66,13.46 -3.81,14.04 -2.69,14.56 -1.58,15.08 -0.14,15.80 1.28,16.53 1.38,16.57 1.47,16.62 1.55,16.70 1.62,16.78 1.67,16.87 1.71,16.97 1.72,17.07 1.74,17.18 1.72,17.28 1.69,17.39 1.64,17.48 1.59,17.57 1.51,17.64 1.43,17.71 1.33,17.75 1.23,17.79 1.12,17.80 1.02,17.80 0.91,17.78 0.81,17.75 0.72,17.69 0.64,17.63 0.57,17.55 0.50,17.46 0.47,17.36 0.43,17.26 0.43,17.16 0.43,17.05 0.47,16.95 0.50,16.85 0.56,16.76 0.62,16.68 0.71,16.62 0.80,16.56 0.90,16.53 1.00,16.50 1.11,16.50 1.22,16.51 1.31,16.55 1.41,16.58 1.50,16.65 1.58,16.72 1.63,16.81 1.69,16.90 1.71,17.00 1.74,17.11 1.73,17.21 1.72,17.32 1.67,17.42 1.63,17.51 1.56,17.59 1.48,17.67 1.39,17.72 1.30,17.77 1.19,17.79 1.09,17.81 0.98,17.79 0.88,17.77 0.88,17.77 0.88,17.77 -0.70,17.51 -2.28,17.25 -3.75,16.94 -5.22,16.63 -6.43,16.08 -7.64,15.53 -8.66,14.67 -9.69,13.82 -10.19,12.64 -10.68,11.46 -10.44,10.45 -10.20,9.45 -9.67,8.70 -9.15,7.96 -8.17,6.72 -7.19,5.48 -5.74,3.76 -4.28,2.04 -2.65,0.53 -1.01,-0.97 -0.88,-1.08 -0.75,-1.19 -0.60,-1.26 -0.44,-1.33 -0.28,-1.37 -0.11,-1.40 0.05,-1.39 0.22,-1.39 0.38,-1.34 0.55,-1.29 0.69,-1.21 0.84,-1.12 0.96,-1.01 1.09,-0.89 1.18,-0.75 1.27,-0.60 1.32,-0.44 1.38,-0.28 1.39,-0.11 1.40,0.05 1.38,0.22 1.35,0.39 1.28,0.54 1.22,0.70 1.12,0.83 1.01,0.97 1.01,0.97 L 1.01,0.97 Z"></path></g><g transform="translate(10.7503662109375 21.009307861328125) rotate(0 0.8247833251953125 8.463348388671875)" stroke="none"><path fill="#1e1e1e" d="M 1.39,0.12 Q 1.39,0.12 1.32,2.37 1.26,4.63 1.17,6.91 1.08,9.18 1.12,10.76 1.16,12.34 1.23,13.45 1.30,14.55 2.00,14.22 2.69,13.88 2.70,13.96 2.70,14.04 2.68,14.12 2.67,14.20 2.63,14.27 2.60,14.34 2.55,14.40 2.50,14.46 2.44,14.51 2.37,14.56 2.30,14.59 2.23,14.62 2.15,14.64 2.07,14.65 1.99,14.64 1.92,14.64 1.84,14.61 1.76,14.59 1.70,14.54 1.63,14.50 1.58,14.44 1.52,14.39 1.48,14.32 1.44,14.25 1.42,14.18 1.40,14.10 1.52,13.78 1.65,13.47 1.74,13.42 1.84,13.37 1.94,13.35 2.05,13.34 2.15,13.35 2.26,13.37 2.35,13.42 2.44,13.47 2.52,13.55 2.59,13.63 2.63,13.72 2.68,13.82 2.69,13.93 2.70,14.03 2.68,14.13 2.65,14.24 2.60,14.33 2.54,14.42 2.46,14.49 2.38,14.56 2.28,14.60 2.18,14.63 2.08,14.64 1.97,14.64 1.87,14.62 1.77,14.59 1.68,14.53 1.59,14.47 1.53,14.38 1.46,14.30 1.43,14.20 1.40,14.09 1.40,13.99 1.40,13.88 1.43,13.78 1.47,13.68 1.53,13.60 1.60,13.51 1.68,13.45 1.77,13.39 1.87,13.37 1.98,13.34 2.08,13.35 2.19,13.35 2.29,13.39 2.39,13.43 2.47,13.50 2.55,13.57 2.60,13.66 2.66,13.75 2.68,13.86 2.70,13.96 2.69,14.07 2.68,14.17 2.63,14.27 2.59,14.36 2.64,14.12 2.69,13.88 2.70,13.96 2.70,14.04 2.68,14.12 2.67,14.20 2.63,14.27 2.60,14.34 2.55,14.40 2.50,14.46 2.44,14.51 2.37,14.56 2.30,14.59 2.23,14.62 2.15,14.64 2.07,14.65 1.99,14.64 1.92,14.64 1.84,14.61 1.76,14.59 1.70,14.54 1.63,14.50 1.58,14.44 1.52,14.39 1.48,14.32 1.44,14.25 1.42,14.18 1.40,14.10 0.04,15.33 -1.30,16.57 -1.62,15.70 -1.94,14.82 -2.06,13.63 -2.18,12.44 -2.23,10.74 -2.29,9.04 -2.18,6.68 -2.07,4.33 -1.73,2.10 -1.39,-0.12 -1.35,-0.29 -1.32,-0.45 -1.24,-0.60 -1.17,-0.75 -1.06,-0.88 -0.95,-1.01 -0.82,-1.11 -0.68,-1.21 -0.53,-1.28 -0.37,-1.34 -0.20,-1.37 -0.04,-1.39 0.12,-1.38 0.29,-1.36 0.45,-1.31 0.61,-1.25 0.75,-1.16 0.89,-1.07 1.00,-0.95 1.12,-0.82 1.20,-0.68 1.29,-0.53 1.33,-0.37 1.38,-0.21 1.38,-0.04 1.39,0.12 1.39,0.12 L 1.39,0.12 Z"></path></g><g transform="translate(251.093017578125 17.656982421875) rotate(0 6.720794677734375 7.4032745361328125)" stroke="none"><path fill="#1e1e1e" d="M 0.79,-1.13 Q 0.79,-1.13 2.48,-0.10 4.18,0.91 5.38,1.92 6.59,2.93 7.53,4.19 8.46,5.45 8.45,7.51 8.44,9.57 7.29,11.36 6.14,13.16 4.93,14.11 3.72,15.06 2.91,15.50 2.09,15.93 1.35,16.11 0.60,16.29 0.44,16.27 0.28,16.26 0.07,16.28 -0.14,16.29 -0.35,16.25 -0.56,16.21 -0.76,16.13 -0.96,16.04 -1.13,15.91 -1.30,15.77 -1.43,15.60 -1.57,15.43 -1.66,15.24 -1.75,15.04 -1.78,14.83 -1.82,14.61 -1.81,14.40 -1.80,14.18 -1.74,13.98 -1.67,13.77 -1.56,13.58 -1.45,13.40 -1.30,13.25 -1.15,13.09 -0.96,12.98 -0.78,12.87 -0.57,12.80 -0.37,12.74 0.15,12.62 0.68,12.50 2.38,12.23 4.08,11.96 6.25,11.86 8.42,11.77 10.70,12.04 12.99,12.31 13.09,12.33 13.20,12.35 13.29,12.40 13.38,12.45 13.45,12.53 13.52,12.61 13.57,12.70 13.61,12.80 13.62,12.91 13.63,13.01 13.60,13.12 13.58,13.22 13.52,13.31 13.46,13.40 13.38,13.47 13.30,13.53 13.20,13.57 13.10,13.61 12.99,13.61 12.89,13.61 12.78,13.58 12.68,13.55 12.60,13.49 12.51,13.43 12.45,13.34 12.39,13.26 12.35,13.16 12.32,13.06 12.32,12.95 12.33,12.84 12.36,12.74 12.40,12.64 12.47,12.56 12.53,12.48 12.62,12.42 12.71,12.36 12.81,12.34 12.92,12.31 13.02,12.32 13.13,12.33 13.23,12.37 13.32,12.41 13.40,12.48 13.48,12.55 13.54,12.64 13.59,12.73 13.61,12.84 13.63,12.94 13.61,13.05 13.60,13.15 13.55,13.25 13.51,13.34 13.43,13.42 13.36,13.50 13.26,13.54 13.17,13.59 13.06,13.61 12.96,13.62 12.96,13.62 12.96,13.62 10.86,13.79 8.76,13.96 6.74,14.54 4.72,15.12 3.13,15.52 1.55,15.91 0.92,16.09 0.28,16.26 0.07,16.28 -0.14,16.29 -0.35,16.25 -0.56,16.21 -0.76,16.13 -0.96,16.04 -1.13,15.91 -1.30,15.77 -1.43,15.60 -1.57,15.43 -1.66,15.24 -1.75,15.04 -1.78,14.83 -1.82,14.62 -1.81,14.40 -1.80,14.18 -1.74,13.98 -1.67,13.77 -1.56,13.59 -1.45,13.40 -1.30,13.25 -1.15,13.09 -0.96,12.98 -0.78,12.87 -0.57,12.80 -0.37,12.74 0.08,12.71 0.55,12.68 1.10,12.45 1.66,12.22 2.51,11.66 3.36,11.11 4.23,10.07 5.10,9.04 5.37,7.96 5.63,6.88 5.03,6.16 4.43,5.44 3.37,4.52 2.31,3.60 0.75,2.37 -0.79,1.13 -0.91,1.02 -1.04,0.91 -1.13,0.77 -1.23,0.63 -1.28,0.48 -1.34,0.32 -1.36,0.16 -1.38,-0.00 -1.36,-0.17 -1.34,-0.33 -1.28,-0.49 -1.22,-0.64 -1.13,-0.78 -1.03,-0.92 -0.90,-1.03 -0.78,-1.14 -0.63,-1.22 -0.48,-1.29 -0.32,-1.33 -0.16,-1.37 0.00,-1.37 0.17,-1.37 0.33,-1.33 0.49,-1.29 0.64,-1.21 0.79,-1.13 0.79,-1.13 L 0.79,-1.13 Z"></path></g><g transform="translate(140.15960693359375 223.21878051757812) rotate(0 0.107513427734375 8.970947265625)" stroke="none"><path fill="#1e1e1e" d="M 0.11,-1.28 Q 0.11,-1.28 1.32,-1.32 2.54,-1.36 3.55,-1.15 4.56,-0.95 5.51,-0.50 6.45,-0.06 7.01,1.18 7.56,2.43 6.95,4.17 6.34,5.90 5.19,6.97 4.03,8.05 2.79,8.57 1.56,9.09 0.75,9.23 -0.05,9.38 -0.37,9.36 -0.68,9.33 -0.87,9.34 -1.06,9.35 -1.25,9.32 -1.43,9.28 -1.61,9.21 -1.78,9.13 -1.93,9.01 -2.07,8.89 -2.19,8.74 -2.31,8.60 -2.38,8.42 -2.46,8.25 -2.49,8.06 -2.53,7.88 -2.52,7.69 -2.50,7.50 -2.45,7.32 -2.39,7.14 -2.29,6.98 -2.19,6.82 -2.06,6.68 -1.92,6.55 -1.76,6.45 -1.60,6.36 -1.42,6.30 -1.24,6.24 0.29,6.09 1.84,5.93 2.88,5.96 3.92,5.99 4.86,6.09 5.79,6.20 6.76,6.50 7.73,6.79 8.51,7.92 9.30,9.05 8.75,11.11 8.21,13.17 7.00,14.65 5.79,16.13 4.00,17.14 2.21,18.15 0.30,18.58 -1.59,19.01 -3.25,18.59 -4.91,18.18 -6.45,16.31 -8.00,14.44 -8.06,14.35 -8.11,14.26 -8.14,14.16 -8.17,14.05 -8.16,13.95 -8.15,13.84 -8.11,13.74 -8.06,13.65 -7.99,13.57 -7.92,13.49 -7.83,13.44 -7.74,13.38 -7.63,13.36 -7.53,13.34 -7.42,13.36 -7.32,13.37 -7.22,13.42 -7.13,13.47 -7.05,13.54 -6.98,13.62 -6.93,13.71 -6.88,13.81 -6.87,13.91 -6.85,14.02 -6.88,14.12 -6.90,14.23 -6.95,14.32 -7.00,14.41 -7.08,14.48 -7.16,14.55 -7.26,14.60 -7.35,14.64 -7.46,14.65 -7.57,14.65 -7.67,14.63 -7.77,14.60 -7.86,14.55 -7.95,14.49 -8.02,14.41 -8.08,14.32 -8.12,14.22 -8.16,14.12 -8.16,14.02 -8.16,13.91 -8.13,13.81 -8.10,13.71 -8.04,13.62 -7.98,13.54 -7.89,13.47 -7.80,13.41 -7.70,13.38 -7.60,13.35 -7.49,13.35 -7.39,13.36 -7.29,13.39 -7.19,13.43 -7.10,13.50 -7.02,13.56 -7.02,13.56 -7.02,13.56 -5.68,14.91 -4.35,16.26 -3.32,16.08 -2.30,15.90 -0.84,15.51 0.60,15.12 1.90,14.46 3.20,13.79 4.08,12.83 4.97,11.87 5.16,10.60 5.36,9.34 4.59,9.21 3.82,9.09 2.91,9.05 2.01,9.02 0.66,9.18 -0.68,9.33 -0.87,9.34 -1.06,9.35 -1.25,9.32 -1.43,9.29 -1.61,9.21 -1.78,9.13 -1.93,9.01 -2.07,8.89 -2.19,8.74 -2.31,8.60 -2.38,8.42 -2.46,8.25 -2.49,8.06 -2.53,7.88 -2.52,7.69 -2.50,7.50 -2.45,7.32 -2.39,7.14 -2.29,6.98 -2.19,6.82 -2.06,6.68 -1.92,6.55 -1.76,6.45 -1.60,6.36 -1.42,6.30 -1.24,6.24 -0.42,6.12 0.40,5.99 1.17,5.75 1.95,5.50 2.68,4.97 3.42,4.44 3.65,3.30 3.88,2.16 3.07,1.96 2.26,1.77 1.07,1.53 -0.11,1.28 -0.26,1.25 -0.41,1.22 -0.55,1.15 -0.69,1.08 -0.81,0.98 -0.93,0.88 -1.02,0.76 -1.12,0.63 -1.18,0.49 -1.24,0.35 -1.26,0.19 -1.28,0.04 -1.27,-0.11 -1.26,-0.26 -1.21,-0.41 -1.16,-0.55 -1.07,-0.69 -0.99,-0.82 -0.88,-0.92 -0.76,-1.03 -0.63,-1.11 -0.49,-1.18 -0.34,-1.23 -0.19,-1.27 -0.04,-1.27 0.11,-1.28 0.11,-1.28 L 0.11,-1.28 Z"></path></g><g transform="translate(136.76934814453125 208.05691528320312) rotate(0 4.7265625 3.708892822265625)" stroke="none"><path fill="#1e1e1e" d="M 1.09,-0.32 Q 1.09,-0.32 1.72,1.05 2.34,2.42 2.86,3.37 3.38,4.31 3.90,4.83 4.42,5.34 5.09,5.51 5.75,5.68 6.48,5.30 7.21,4.92 7.33,4.32 7.45,3.71 6.97,3.08 6.49,2.46 5.92,2.17 5.35,1.88 4.76,1.69 4.17,1.50 2.89,1.37 1.61,1.24 1.51,1.26 1.40,1.28 1.30,1.27 1.19,1.25 1.09,1.21 1.00,1.16 0.92,1.09 0.85,1.01 0.80,0.92 0.75,0.82 0.73,0.72 0.72,0.61 0.74,0.51 0.75,0.40 0.81,0.31 0.86,0.22 0.93,0.15 1.01,0.07 1.11,0.03 1.21,-0.00 1.31,-0.01 1.42,-0.02 1.52,-0.00 1.62,0.02 1.72,0.07 1.81,0.13 1.87,0.21 1.94,0.29 1.98,0.39 2.02,0.49 2.02,0.60 2.03,0.70 2.00,0.80 1.97,0.91 1.91,0.99 1.85,1.08 1.76,1.14 1.67,1.21 1.57,1.24 1.47,1.27 1.37,1.27 1.26,1.27 1.16,1.23 1.06,1.20 0.98,1.13 0.89,1.07 0.83,0.98 0.77,0.89 0.75,0.79 0.72,0.68 0.73,0.58 0.73,0.47 0.78,0.37 0.82,0.28 0.89,0.20 0.96,0.12 1.05,0.06 1.14,0.01 1.14,0.01 1.14,0.01 3.05,-0.78 4.96,-1.59 6.02,-1.34 7.09,-1.08 8.14,-0.40 9.18,0.26 9.85,1.23 10.51,2.19 10.68,3.25 10.85,4.30 10.58,5.23 10.32,6.15 9.68,6.96 9.03,7.76 8.10,8.23 7.17,8.69 5.96,8.74 4.74,8.78 3.46,8.20 2.19,7.61 1.39,6.70 0.59,5.79 -0.01,4.56 -0.63,3.32 -0.86,1.82 -1.09,0.32 -1.12,0.19 -1.14,0.05 -1.13,-0.08 -1.12,-0.22 -1.08,-0.35 -1.03,-0.48 -0.96,-0.60 -0.89,-0.71 -0.79,-0.81 -0.69,-0.91 -0.57,-0.98 -0.45,-1.05 -0.32,-1.09 -0.19,-1.13 -0.05,-1.13 0.08,-1.14 0.22,-1.11 0.35,-1.08 0.48,-1.03 0.60,-0.97 0.71,-0.88 0.82,-0.79 0.90,-0.68 0.98,-0.57 1.04,-0.45 1.09,-0.32 1.09,-0.32 L 1.09,-0.32 Z"></path></g><g transform="translate(162.86456298828125 155.90475463867188) rotate(0 0.00005000000000165983 0.00005000000000165983)" stroke="none"><path fill="#1e1e1e" d="M 1.06,-1.06 Q 1.06,-1.06 1.20,-0.86 1.34,-0.66 1.41,-0.43 1.48,-0.20 1.48,0.04 1.47,0.28 1.39,0.51 1.30,0.73 1.15,0.92 1.00,1.11 0.79,1.24 0.59,1.38 0.35,1.43 0.12,1.49 -0.12,1.47 -0.36,1.45 -0.58,1.36 -0.80,1.26 -0.99,1.10 -1.17,0.94 -1.29,0.72 -1.41,0.51 -1.45,0.27 -1.50,0.04 -1.46,-0.20 -1.43,-0.44 -1.32,-0.65 -1.22,-0.87 -1.04,-1.04 -0.87,-1.22 -0.65,-1.32 -0.44,-1.43 -0.19,-1.46 0.04,-1.50 0.27,-1.45 0.51,-1.41 0.73,-1.29 0.94,-1.17 1.10,-0.98 1.26,-0.80 1.36,-0.58 1.45,-0.36 1.47,-0.11 1.49,0.12 1.43,0.35 1.38,0.59 1.24,0.79 1.11,1.00 0.92,1.15 0.73,1.30 0.51,1.39 0.28,1.47 0.03,1.48 -0.20,1.48 -0.43,1.41 -0.66,1.34 -0.86,1.20 -1.06,1.06 -1.06,1.06 -1.06,1.06 -1.17,0.91 -1.28,0.77 -1.36,0.61 -1.43,0.44 -1.46,0.26 -1.49,0.09 -1.48,-0.09 -1.47,-0.27 -1.42,-0.44 -1.37,-0.61 -1.27,-0.77 -1.18,-0.92 -1.05,-1.05 -0.92,-1.18 -0.77,-1.27 -0.61,-1.37 -0.44,-1.42 -0.27,-1.47 -0.09,-1.48 0.09,-1.49 0.26,-1.46 0.44,-1.43 0.61,-1.36 0.77,-1.28 0.91,-1.17 1.06,-1.06 1.06,-1.06 L 1.06,-1.06 Z"></path></g><g transform="translate(162.59783935546875 161.61904907226562) rotate(0 -4.372955322265625 7.45721435546875)" stroke="none"><path fill="#1e1e1e" d="M 1.09,-0.11 Q 1.09,-0.11 1.49,1.20 1.89,2.52 1.94,4.63 1.98,6.74 1.79,8.38 1.59,10.01 0.89,11.57 0.19,13.13 -1.01,14.17 -2.21,15.20 -3.95,15.44 -5.70,15.67 -6.78,15.45 -7.87,15.23 -8.70,14.12 -9.53,13.01 -9.03,11.54 -8.53,10.06 -7.42,8.67 -6.32,7.29 -6.24,7.21 -6.17,7.13 -6.08,7.08 -5.98,7.03 -5.88,7.01 -5.78,6.99 -5.67,7.01 -5.57,7.03 -5.47,7.07 -5.38,7.12 -5.30,7.20 -5.23,7.28 -5.18,7.37 -5.14,7.47 -5.13,7.57 -5.11,7.68 -5.13,7.78 -5.16,7.89 -5.21,7.98 -5.26,8.07 -5.34,8.14 -5.43,8.21 -5.52,8.25 -5.62,8.29 -5.73,8.30 -5.83,8.30 -5.94,8.28 -6.04,8.25 -6.13,8.19 -6.22,8.13 -6.28,8.05 -6.35,7.96 -6.38,7.86 -6.42,7.76 -6.42,7.66 -6.42,7.55 -6.39,7.45 -6.35,7.35 -6.29,7.26 -6.23,7.18 -6.14,7.12 -6.05,7.06 -5.95,7.03 -5.85,7.00 -5.74,7.00 -5.63,7.01 -5.53,7.05 -5.44,7.08 -5.35,7.15 -5.27,7.22 -5.22,7.31 -5.16,7.40 -5.14,7.50 -5.11,7.61 -5.12,7.71 -5.13,7.82 -5.18,7.92 -5.22,8.01 -5.22,8.01 -5.22,8.01 -5.94,9.38 -6.66,10.75 -6.93,11.57 -7.19,12.39 -6.58,12.40 -5.96,12.42 -5.00,12.42 -4.04,12.43 -3.44,11.98 -2.84,11.54 -2.32,10.52 -1.80,9.50 -1.59,8.12 -1.38,6.75 -1.35,4.81 -1.32,2.86 -1.20,1.49 -1.09,0.11 -1.08,-0.01 -1.08,-0.14 -1.05,-0.27 -1.01,-0.40 -0.95,-0.51 -0.89,-0.63 -0.80,-0.73 -0.71,-0.83 -0.60,-0.90 -0.49,-0.97 -0.37,-1.02 -0.24,-1.06 -0.11,-1.08 0.01,-1.09 0.14,-1.07 0.27,-1.06 0.40,-1.01 0.52,-0.96 0.63,-0.88 0.73,-0.81 0.82,-0.70 0.91,-0.60 0.97,-0.49 1.03,-0.37 1.06,-0.24 1.09,-0.11 1.09,-0.11 L 1.09,-0.11 Z"></path></g><g transform="translate(166.55987548828125 160.171142578125) rotate(0 6.031646728515625 3.4512481689453125)" stroke="none"><path fill="#1e1e1e" d="M 1.20,-0.06 Q 1.20,-0.06 1.48,1.22 1.76,2.50 1.84,3.49 1.92,4.49 2.09,5.14 2.25,5.79 2.64,5.25 3.02,4.71 3.54,3.86 4.06,3.00 5.02,2.49 5.99,1.98 6.56,2.05 7.13,2.13 7.82,2.80 8.51,3.48 8.97,3.91 9.44,4.34 10.08,4.72 10.71,5.09 10.35,4.53 9.99,3.97 10.09,1.73 10.20,-0.50 10.18,-0.60 10.15,-0.71 10.17,-0.81 10.18,-0.92 10.23,-1.01 10.27,-1.11 10.35,-1.18 10.42,-1.26 10.52,-1.31 10.61,-1.36 10.72,-1.37 10.82,-1.39 10.93,-1.37 11.03,-1.35 11.12,-1.30 11.22,-1.25 11.29,-1.17 11.36,-1.09 11.40,-0.99 11.45,-0.89 11.46,-0.79 11.47,-0.68 11.44,-0.58 11.42,-0.48 11.36,-0.39 11.30,-0.30 11.22,-0.23 11.14,-0.16 11.04,-0.12 10.94,-0.09 10.83,-0.08 10.73,-0.08 10.63,-0.11 10.52,-0.14 10.44,-0.20 10.35,-0.26 10.29,-0.35 10.22,-0.43 10.19,-0.53 10.16,-0.64 10.16,-0.74 10.16,-0.85 10.20,-0.95 10.24,-1.05 10.30,-1.13 10.37,-1.21 10.46,-1.27 10.55,-1.33 10.65,-1.36 10.75,-1.38 10.86,-1.38 10.96,-1.37 11.06,-1.33 11.16,-1.29 11.24,-1.22 11.32,-1.15 11.37,-1.05 11.42,-0.96 11.42,-0.96 11.42,-0.96 12.38,1.91 13.33,4.80 12.77,6.19 12.20,7.57 11.06,7.97 9.91,8.36 9.13,8.04 8.34,7.73 7.71,7.25 7.07,6.77 6.37,5.72 5.68,4.68 6.27,4.64 6.86,4.60 6.59,5.10 6.33,5.60 5.85,6.31 5.38,7.02 4.67,7.68 3.96,8.34 2.99,8.66 2.03,8.98 1.09,8.62 0.15,8.26 -0.39,7.43 -0.94,6.61 -1.15,5.67 -1.36,4.74 -1.43,3.70 -1.50,2.66 -1.35,1.36 -1.20,0.06 -1.19,-0.08 -1.18,-0.22 -1.14,-0.36 -1.09,-0.50 -1.02,-0.63 -0.94,-0.75 -0.84,-0.85 -0.73,-0.96 -0.61,-1.03 -0.48,-1.10 -0.34,-1.15 -0.20,-1.19 -0.06,-1.20 0.08,-1.20 0.22,-1.17 0.37,-1.15 0.50,-1.09 0.63,-1.02 0.75,-0.93 0.86,-0.84 0.95,-0.73 1.04,-0.61 1.10,-0.48 1.15,-0.34 1.18,-0.20 1.20,-0.06 1.20,-0.06 L 1.20,-0.06 Z"></path></g><g transform="translate(182.2169189453125 155.866455078125) rotate(0 0.29833984375 5.869598388671875)" stroke="none"><path fill="#1e1e1e" d="M 1.29,-0.10 Q 1.29,-0.10 1.65,1.96 2.01,4.02 2.08,5.88 2.14,7.73 1.54,8.77 0.94,9.82 0.93,9.90 0.93,9.98 0.90,10.05 0.88,10.13 0.83,10.19 0.79,10.26 0.74,10.31 0.68,10.37 0.61,10.41 0.54,10.45 0.47,10.47 0.39,10.49 0.31,10.50 0.23,10.50 0.15,10.48 0.08,10.47 0.00,10.44 -0.06,10.40 -0.12,10.35 -0.18,10.30 -0.23,10.24 -0.28,10.18 -0.31,10.10 -0.34,10.03 -0.35,9.95 -0.36,9.87 -0.34,9.74 -0.32,9.60 -0.26,9.51 -0.21,9.42 -0.13,9.35 -0.05,9.28 0.04,9.24 0.14,9.20 0.25,9.20 0.35,9.19 0.45,9.22 0.56,9.25 0.65,9.31 0.73,9.37 0.80,9.45 0.86,9.54 0.90,9.64 0.93,9.74 0.93,9.85 0.93,9.95 0.90,10.05 0.86,10.15 0.80,10.24 0.73,10.32 0.65,10.38 0.56,10.44 0.46,10.47 0.35,10.50 0.25,10.49 0.14,10.49 0.04,10.45 -0.05,10.41 -0.13,10.34 -0.21,10.27 -0.26,10.18 -0.32,10.09 -0.34,9.99 -0.36,9.88 -0.35,9.78 -0.34,9.67 -0.30,9.57 -0.25,9.48 -0.18,9.40 -0.11,9.32 -0.01,9.27 0.07,9.22 0.18,9.21 0.28,9.19 0.39,9.21 0.49,9.22 0.59,9.27 0.68,9.32 0.75,9.40 0.83,9.48 0.87,9.57 0.91,9.67 0.93,9.78 0.94,9.88 0.94,9.85 0.94,9.82 0.93,9.90 0.93,9.98 0.90,10.05 0.88,10.13 0.83,10.19 0.79,10.26 0.74,10.31 0.68,10.37 0.61,10.41 0.54,10.45 0.47,10.47 0.39,10.49 0.31,10.50 0.23,10.50 0.15,10.48 0.08,10.47 0.00,10.44 -0.06,10.40 -0.12,10.35 -0.18,10.30 -0.23,10.24 -0.28,10.18 -0.31,10.10 -0.34,10.03 -0.35,9.95 -0.36,9.87 -0.77,8.87 -1.18,7.87 -1.27,6.08 -1.36,4.28 -1.33,2.19 -1.29,0.10 -1.29,-0.05 -1.28,-0.21 -1.24,-0.36 -1.19,-0.51 -1.11,-0.64 -1.03,-0.78 -0.93,-0.89 -0.82,-1.01 -0.68,-1.09 -0.55,-1.17 -0.40,-1.22 -0.25,-1.27 -0.10,-1.28 0.05,-1.30 0.21,-1.27 0.36,-1.25 0.50,-1.18 0.65,-1.12 0.77,-1.03 0.90,-0.93 1.00,-0.81 1.10,-0.69 1.16,-0.55 1.23,-0.40 1.26,-0.25 1.29,-0.10 1.29,-0.10 L 1.29,-0.10 Z"></path></g><g transform="translate(183.81695556640625 156.09524536132812) rotate(0 8.399932861328125 7.3141632080078125)" stroke="none"><path fill="#1e1e1e" d="M 1.00,-0.91 Q 1.00,-0.91 2.71,0.71 4.43,2.34 5.89,3.91 7.35,5.48 8.27,6.48 9.18,7.49 9.76,8.09 10.34,8.70 10.75,8.98 11.17,9.26 11.29,9.44 11.42,9.61 11.51,9.81 11.59,10.01 11.62,10.22 11.66,10.44 11.64,10.65 11.62,10.87 11.55,11.07 11.48,11.28 11.36,11.46 11.24,11.64 11.08,11.79 10.93,11.94 10.74,12.05 10.55,12.16 10.34,12.21 10.13,12.27 9.91,12.28 9.70,12.29 9.49,12.24 9.27,12.20 9.08,12.10 8.88,12.01 8.72,11.87 8.55,11.73 8.95,9.76 9.35,7.79 9.85,6.48 10.36,5.16 10.86,3.85 11.35,2.54 11.71,1.66 12.07,0.77 12.33,0.17 12.60,-0.43 13.72,-1.15 14.85,-1.88 15.55,-1.50 16.25,-1.13 16.76,0.86 17.27,2.86 17.50,4.93 17.74,7.00 17.95,8.67 18.17,10.34 18.29,11.46 18.42,12.58 17.60,13.56 16.77,14.55 16.77,14.63 16.77,14.70 16.75,14.78 16.73,14.86 16.70,14.93 16.66,15.00 16.60,15.06 16.55,15.12 16.49,15.16 16.42,15.20 16.35,15.23 16.27,15.26 16.19,15.27 16.12,15.28 16.04,15.27 15.96,15.26 15.88,15.23 15.81,15.20 15.75,15.15 15.68,15.11 15.63,15.05 15.58,14.99 15.54,14.92 15.50,14.85 15.49,14.77 15.47,14.69 15.49,14.77 15.50,14.84 15.48,14.74 15.46,14.63 15.48,14.53 15.49,14.42 15.54,14.33 15.59,14.23 15.67,14.16 15.74,14.08 15.84,14.04 15.93,13.99 16.04,13.98 16.14,13.96 16.25,13.98 16.35,14.01 16.44,14.06 16.54,14.11 16.61,14.19 16.68,14.27 16.72,14.37 16.76,14.47 16.77,14.57 16.77,14.68 16.75,14.78 16.72,14.89 16.66,14.97 16.61,15.06 16.52,15.13 16.44,15.19 16.34,15.23 16.24,15.27 16.13,15.27 16.03,15.27 15.92,15.24 15.82,15.21 15.74,15.14 15.65,15.08 15.59,14.99 15.53,14.91 15.50,14.80 15.47,14.70 15.47,14.60 15.48,14.49 15.51,14.39 15.55,14.29 15.62,14.21 15.69,14.13 15.78,14.07 15.87,14.01 15.97,13.99 16.07,13.97 16.18,13.97 16.29,13.98 16.38,14.03 16.48,14.07 16.56,14.14 16.64,14.21 16.70,14.38 16.77,14.55 16.77,14.63 16.77,14.70 16.75,14.78 16.73,14.86 16.70,14.93 16.66,15.00 16.60,15.06 16.55,15.12 16.49,15.16 16.42,15.20 16.35,15.23 16.27,15.26 16.19,15.27 16.12,15.28 16.04,15.27 15.96,15.26 15.88,15.23 15.81,15.20 15.75,15.15 15.68,15.11 15.63,15.05 15.58,14.99 15.54,14.92 15.50,14.85 15.49,14.77 15.47,14.69 15.14,13.84 14.80,12.99 14.68,11.90 14.55,10.80 14.33,9.11 14.12,7.41 13.88,5.39 13.65,3.37 14.03,2.29 14.41,1.22 15.16,1.13 15.91,1.04 15.66,1.59 15.41,2.14 15.06,2.98 14.71,3.82 14.20,5.15 13.70,6.47 13.08,8.02 12.46,9.58 11.81,9.42 11.17,9.26 11.29,9.43 11.42,9.61 11.51,9.81 11.59,10.01 11.62,10.22 11.66,10.44 11.64,10.65 11.62,10.87 11.55,11.07 11.48,11.28 11.36,11.46 11.24,11.64 11.08,11.79 10.93,11.94 10.74,12.05 10.55,12.16 10.34,12.21 10.13,12.27 9.92,12.28 9.70,12.29 9.49,12.24 9.27,12.20 9.08,12.10 8.88,12.01 8.72,11.87 8.55,11.73 8.15,11.45 7.74,11.17 7.13,10.52 6.51,9.86 5.64,8.85 4.76,7.83 3.34,6.23 1.92,4.63 0.46,2.77 -1.00,0.91 -1.09,0.77 -1.19,0.64 -1.25,0.49 -1.31,0.34 -1.33,0.18 -1.35,0.01 -1.33,-0.14 -1.31,-0.30 -1.26,-0.45 -1.20,-0.61 -1.11,-0.74 -1.02,-0.88 -0.90,-0.99 -0.78,-1.10 -0.64,-1.18 -0.49,-1.26 -0.33,-1.30 -0.18,-1.34 -0.01,-1.34 0.14,-1.34 0.30,-1.31 0.46,-1.27 0.60,-1.19 0.75,-1.12 0.87,-1.01 1.00,-0.91 1.00,-0.91 L 1.00,-0.91 Z"></path></g><g transform="translate(24.807281494140625 75.257080078125) rotate(0 0.00005000000000165983 0.00005000000000165983)" stroke="none"><path fill="#1e1e1e" d="M 1.06,-1.06 Q 1.06,-1.06 1.20,-0.86 1.34,-0.66 1.41,-0.43 1.48,-0.20 1.48,0.04 1.47,0.28 1.39,0.51 1.30,0.73 1.15,0.92 1.00,1.11 0.79,1.24 0.59,1.38 0.35,1.43 0.12,1.49 -0.12,1.47 -0.36,1.45 -0.58,1.36 -0.80,1.26 -0.99,1.10 -1.17,0.94 -1.29,0.72 -1.41,0.51 -1.45,0.27 -1.50,0.04 -1.46,-0.20 -1.43,-0.44 -1.32,-0.65 -1.22,-0.87 -1.04,-1.04 -0.87,-1.22 -0.65,-1.32 -0.44,-1.43 -0.19,-1.46 0.04,-1.50 0.27,-1.45 0.51,-1.41 0.73,-1.29 0.94,-1.17 1.10,-0.98 1.26,-0.80 1.36,-0.58 1.45,-0.36 1.47,-0.11 1.49,0.12 1.43,0.35 1.38,0.59 1.24,0.79 1.11,1.00 0.92,1.15 0.73,1.30 0.51,1.39 0.28,1.47 0.03,1.48 -0.20,1.48 -0.43,1.41 -0.66,1.34 -0.86,1.20 -1.06,1.06 -1.06,1.06 -1.06,1.06 -1.17,0.91 -1.28,0.77 -1.36,0.61 -1.43,0.44 -1.46,0.26 -1.49,0.09 -1.48,-0.09 -1.47,-0.27 -1.42,-0.44 -1.37,-0.61 -1.27,-0.77 -1.18,-0.92 -1.05,-1.05 -0.92,-1.18 -0.77,-1.27 -0.61,-1.37 -0.44,-1.42 -0.27,-1.47 -0.09,-1.48 0.09,-1.49 0.26,-1.46 0.44,-1.43 0.61,-1.36 0.77,-1.28 0.91,-1.17 1.06,-1.06 1.06,-1.06 L 1.06,-1.06 Z"></path></g><g transform="translate(23.6644287109375 80.7425537109375) rotate(0 -1.6813507080078125 10.428390502929688)" stroke="none"><path fill="#1e1e1e" d="M 1.11,-0.17 Q 1.11,-0.17 1.70,2.38 2.29,4.94 2.66,7.49 3.04,10.05 3.26,11.94 3.47,13.82 3.57,15.00 3.68,16.17 3.57,17.23 3.45,18.30 2.76,19.46 2.08,20.63 0.83,21.26 -0.41,21.90 -2.02,21.55 -3.64,21.21 -4.66,19.94 -5.67,18.67 -5.68,16.81 -5.68,14.95 -4.66,12.38 -3.64,9.82 -3.59,9.72 -3.54,9.63 -3.47,9.56 -3.39,9.48 -3.29,9.44 -3.20,9.39 -3.09,9.38 -2.99,9.37 -2.88,9.39 -2.78,9.41 -2.69,9.47 -2.60,9.52 -2.53,9.60 -2.46,9.68 -2.42,9.78 -2.38,9.88 -2.37,9.99 -2.37,10.09 -2.39,10.20 -2.42,10.30 -2.48,10.39 -2.54,10.48 -2.63,10.54 -2.71,10.60 -2.81,10.64 -2.91,10.67 -3.02,10.67 -3.12,10.67 -3.22,10.64 -3.33,10.61 -3.41,10.54 -3.49,10.48 -3.55,10.39 -3.61,10.30 -3.64,10.20 -3.67,10.10 -3.67,9.99 -3.66,9.89 -3.62,9.79 -3.58,9.69 -3.52,9.61 -3.45,9.53 -3.36,9.47 -3.27,9.42 -3.16,9.39 -3.06,9.37 -2.95,9.38 -2.85,9.39 -2.75,9.44 -2.65,9.48 -2.58,9.55 -2.50,9.63 -2.45,9.72 -2.40,9.81 -2.38,9.92 -2.36,10.02 -2.38,10.13 -2.40,10.23 -2.40,10.23 -2.40,10.23 -3.00,12.56 -3.61,14.89 -3.45,16.03 -3.28,17.18 -2.88,17.76 -2.47,18.33 -1.51,18.44 -0.54,18.55 -0.20,18.13 0.14,17.72 0.25,17.04 0.37,16.36 0.33,15.25 0.30,14.15 0.14,12.30 -0.02,10.46 -0.32,7.93 -0.63,5.41 -0.87,2.79 -1.11,0.17 -1.12,0.04 -1.12,-0.09 -1.09,-0.22 -1.07,-0.36 -1.01,-0.48 -0.95,-0.60 -0.86,-0.71 -0.78,-0.81 -0.67,-0.89 -0.56,-0.98 -0.43,-1.03 -0.31,-1.08 -0.17,-1.10 -0.04,-1.12 0.09,-1.11 0.22,-1.10 0.35,-1.06 0.48,-1.02 0.60,-0.94 0.71,-0.87 0.81,-0.77 0.90,-0.67 0.97,-0.55 1.04,-0.44 1.07,-0.30 1.11,-0.17 1.11,-0.17 L 1.11,-0.17 Z"></path></g><g transform="translate(31.245574951171875 79.40924072265625) rotate(0 8.127197265625 3.7150115966796875)" stroke="none"><path fill="#1e1e1e" d="M 1.21,0.11 Q 1.21,0.11 1.21,1.64 1.21,3.17 1.20,4.11 1.18,5.06 1.30,5.61 1.41,6.15 2.28,6.17 3.15,6.20 4.08,5.22 5.01,4.23 5.64,3.12 6.26,2.00 6.48,1.26 6.70,0.51 6.71,-0.06 6.73,-0.64 6.78,-0.83 6.83,-1.02 6.93,-1.18 7.03,-1.35 7.16,-1.49 7.29,-1.63 7.46,-1.74 7.62,-1.84 7.80,-1.90 7.99,-1.97 8.18,-1.98 8.37,-2.00 8.56,-1.97 8.75,-1.94 8.93,-1.86 9.11,-1.79 9.27,-1.67 9.42,-1.56 9.54,-1.41 9.67,-1.26 9.75,-1.08 9.83,-0.91 9.87,-0.72 9.91,-0.53 9.91,-0.34 9.90,-0.14 10.04,0.86 10.18,1.88 10.60,2.65 11.02,3.41 11.60,3.93 12.17,4.45 12.98,4.65 13.78,4.84 14.21,3.94 14.65,3.04 14.62,2.34 14.59,1.64 14.46,0.42 14.33,-0.80 14.28,-0.90 14.24,-0.99 14.22,-1.10 14.21,-1.20 14.23,-1.31 14.25,-1.41 14.31,-1.50 14.36,-1.59 14.44,-1.66 14.52,-1.73 14.62,-1.77 14.72,-1.81 14.82,-1.82 14.93,-1.83 15.03,-1.80 15.14,-1.77 15.22,-1.72 15.31,-1.66 15.38,-1.57 15.44,-1.49 15.48,-1.39 15.51,-1.29 15.52,-1.18 15.52,-1.08 15.48,-0.98 15.45,-0.87 15.39,-0.79 15.33,-0.70 15.24,-0.64 15.15,-0.58 15.05,-0.55 14.95,-0.52 14.84,-0.53 14.73,-0.53 14.64,-0.57 14.54,-0.61 14.45,-0.68 14.37,-0.74 14.32,-0.83 14.26,-0.92 14.24,-1.03 14.21,-1.13 14.22,-1.24 14.23,-1.34 14.28,-1.44 14.32,-1.54 14.39,-1.61 14.46,-1.69 14.56,-1.74 14.65,-1.79 14.75,-1.81 14.86,-1.83 14.96,-1.82 15.07,-1.80 15.16,-1.75 15.26,-1.70 15.33,-1.63 15.41,-1.55 15.41,-1.55 15.41,-1.55 16.59,-0.07 17.77,1.39 17.86,2.70 17.96,4.01 17.45,5.31 16.94,6.60 16.08,7.26 15.21,7.92 14.27,8.08 13.33,8.24 12.45,8.02 11.57,7.80 10.74,7.28 9.90,6.76 9.04,5.83 8.18,4.90 7.62,3.73 7.07,2.56 6.90,0.96 6.73,-0.64 6.78,-0.83 6.83,-1.02 6.93,-1.18 7.03,-1.35 7.16,-1.49 7.29,-1.63 7.46,-1.74 7.62,-1.84 7.80,-1.90 7.99,-1.97 8.18,-1.98 8.37,-2.00 8.56,-1.97 8.75,-1.94 8.93,-1.86 9.11,-1.79 9.26,-1.67 9.42,-1.56 9.54,-1.41 9.67,-1.26 9.75,-1.08 9.83,-0.91 9.87,-0.72 9.91,-0.53 9.91,-0.34 9.90,-0.14 9.96,0.05 10.02,0.25 9.91,0.87 9.80,1.50 9.43,2.56 9.07,3.63 8.17,5.11 7.28,6.60 5.70,7.96 4.13,9.32 2.56,9.53 0.99,9.73 0.08,9.09 -0.83,8.44 -1.23,7.59 -1.63,6.73 -1.76,5.85 -1.90,4.96 -1.84,3.92 -1.78,2.89 -1.50,1.38 -1.21,-0.11 -1.18,-0.25 -1.15,-0.40 -1.08,-0.53 -1.02,-0.66 -0.92,-0.77 -0.83,-0.89 -0.71,-0.97 -0.59,-1.06 -0.46,-1.12 -0.32,-1.17 -0.17,-1.19 -0.03,-1.21 0.11,-1.20 0.25,-1.19 0.39,-1.14 0.53,-1.09 0.66,-1.01 0.78,-0.93 0.88,-0.82 0.98,-0.71 1.05,-0.59 1.12,-0.46 1.16,-0.32 1.20,-0.17 1.21,-0.03 1.21,0.11 1.21,0.11 L 1.21,0.11 Z"></path></g><g transform="translate(51.436004638671875 71.10455322265625) rotate(0 0.00005000000000165983 0.00005000000000165983)" stroke="none"><path fill="#1e1e1e" d="M 1.06,-1.06 Q 1.06,-1.06 1.20,-0.86 1.34,-0.66 1.41,-0.43 1.48,-0.20 1.48,0.04 1.47,0.28 1.39,0.51 1.30,0.73 1.15,0.92 1.00,1.11 0.79,1.24 0.59,1.38 0.35,1.43 0.12,1.49 -0.12,1.47 -0.36,1.45 -0.58,1.36 -0.80,1.26 -0.99,1.10 -1.17,0.94 -1.29,0.72 -1.41,0.51 -1.45,0.27 -1.50,0.04 -1.46,-0.20 -1.43,-0.44 -1.32,-0.65 -1.22,-0.87 -1.04,-1.04 -0.87,-1.22 -0.65,-1.32 -0.44,-1.43 -0.19,-1.46 0.04,-1.50 0.27,-1.45 0.51,-1.41 0.73,-1.29 0.94,-1.17 1.10,-0.98 1.26,-0.80 1.36,-0.58 1.45,-0.36 1.47,-0.11 1.49,0.12 1.43,0.35 1.38,0.59 1.24,0.79 1.11,1.00 0.92,1.15 0.73,1.30 0.51,1.39 0.28,1.47 0.03,1.48 -0.20,1.48 -0.43,1.41 -0.66,1.34 -0.86,1.20 -1.06,1.06 -1.06,1.06 -1.06,1.06 -1.17,0.91 -1.28,0.77 -1.36,0.61 -1.43,0.44 -1.46,0.26 -1.49,0.09 -1.48,-0.09 -1.47,-0.27 -1.42,-0.44 -1.37,-0.61 -1.27,-0.77 -1.18,-0.92 -1.05,-1.05 -0.92,-1.18 -0.77,-1.27 -0.61,-1.37 -0.44,-1.42 -0.27,-1.47 -0.09,-1.48 0.09,-1.49 0.26,-1.46 0.44,-1.43 0.61,-1.36 0.77,-1.28 0.91,-1.17 1.06,-1.06 1.06,-1.06 L 1.06,-1.06 Z"></path></g><g transform="translate(51.436004638671875 71.10455322265625) rotate(0 0.00005000000000165983 0.00005000000000165983)" stroke="none"><path fill="#1e1e1e" d="M 1.06,-1.06 Q 1.06,-1.06 1.20,-0.86 1.34,-0.66 1.41,-0.43 1.48,-0.20 1.48,0.04 1.47,0.28 1.39,0.51 1.30,0.73 1.15,0.92 1.00,1.11 0.79,1.24 0.59,1.38 0.35,1.43 0.12,1.49 -0.12,1.47 -0.36,1.45 -0.58,1.36 -0.80,1.26 -0.99,1.10 -1.17,0.94 -1.29,0.72 -1.41,0.51 -1.45,0.27 -1.50,0.04 -1.46,-0.20 -1.43,-0.44 -1.32,-0.65 -1.22,-0.87 -1.04,-1.04 -0.87,-1.22 -0.65,-1.32 -0.44,-1.43 -0.19,-1.46 0.04,-1.50 0.27,-1.45 0.51,-1.41 0.73,-1.29 0.94,-1.17 1.10,-0.98 1.26,-0.80 1.36,-0.58 1.45,-0.36 1.47,-0.11 1.49,0.12 1.43,0.35 1.38,0.59 1.24,0.79 1.11,1.00 0.92,1.15 0.73,1.30 0.51,1.39 0.28,1.47 0.03,1.48 -0.20,1.48 -0.43,1.41 -0.66,1.34 -0.86,1.20 -1.06,1.06 -1.06,1.06 -1.06,1.06 -1.17,0.91 -1.28,0.77 -1.36,0.61 -1.43,0.44 -1.46,0.26 -1.49,0.09 -1.48,-0.09 -1.47,-0.27 -1.42,-0.44 -1.37,-0.61 -1.27,-0.77 -1.18,-0.92 -1.05,-1.05 -0.92,-1.18 -0.77,-1.27 -0.61,-1.37 -0.44,-1.42 -0.27,-1.47 -0.09,-1.48 0.09,-1.49 0.26,-1.46 0.44,-1.43 0.61,-1.36 0.77,-1.28 0.91,-1.17 1.06,-1.06 1.06,-1.06 L 1.06,-1.06 Z"></path></g><g transform="translate(51.436004638671875 71.14285278320312) rotate(0 4.40252685546875 7.9808502197265625)" stroke="none"><path fill="#1e1e1e" d="M 0.78,0.02 Q 0.78,0.02 1.09,2.87 1.41,5.73 1.39,7.90 1.37,10.07 1.40,11.36 1.44,12.64 1.50,13.36 1.56,14.08 2.13,14.04 2.71,14.01 3.68,13.99 4.66,13.98 6.64,14.07 8.62,14.15 8.73,14.16 8.84,14.17 8.93,14.21 9.03,14.25 9.11,14.33 9.19,14.40 9.24,14.49 9.29,14.58 9.31,14.69 9.33,14.79 9.32,14.90 9.30,15.00 9.25,15.10 9.21,15.19 9.13,15.27 9.06,15.34 8.96,15.39 8.86,15.43 8.76,15.45 8.65,15.46 8.55,15.44 8.45,15.42 8.35,15.37 8.26,15.32 8.19,15.24 8.12,15.16 8.08,15.06 8.04,14.96 8.03,14.86 8.02,14.75 8.05,14.65 8.07,14.54 8.13,14.45 8.19,14.36 8.27,14.30 8.35,14.23 8.45,14.20 8.55,14.16 8.66,14.16 8.77,14.16 8.87,14.19 8.97,14.22 9.05,14.28 9.14,14.34 9.20,14.43 9.26,14.52 9.29,14.62 9.33,14.72 9.32,14.83 9.32,14.93 9.28,15.03 9.24,15.13 9.18,15.21 9.11,15.30 9.02,15.35 8.93,15.41 8.83,15.44 8.72,15.46 8.72,15.46 8.72,15.46 6.90,15.90 5.08,16.35 4.20,16.66 3.33,16.98 2.32,17.23 1.30,17.47 0.62,17.38 -0.06,17.28 -0.59,16.84 -1.12,16.39 -1.40,15.34 -1.68,14.28 -1.72,13.50 -1.75,12.71 -1.77,11.37 -1.79,10.03 -1.75,7.84 -1.71,5.65 -1.24,2.81 -0.78,-0.02 -0.76,-0.11 -0.75,-0.20 -0.71,-0.29 -0.68,-0.38 -0.62,-0.45 -0.57,-0.53 -0.49,-0.59 -0.42,-0.65 -0.34,-0.69 -0.25,-0.73 -0.16,-0.75 -0.07,-0.77 0.02,-0.77 0.11,-0.77 0.20,-0.74 0.29,-0.72 0.37,-0.67 0.46,-0.63 0.52,-0.56 0.59,-0.50 0.65,-0.42 0.70,-0.34 0.73,-0.25 0.76,-0.16 0.77,-0.07 0.78,0.02 0.78,0.02 L 0.78,0.02 Z"></path></g><g transform="translate(64.50259399414062 82.3046875) rotate(0 0.4572296142578125 2.76190185546875)" stroke="none"><path fill="#1e1e1e" d="M 1.35,-0.12 Q 1.35,-0.12 1.42,0.84 1.48,1.81 1.47,3.42 1.47,5.02 1.47,5.13 1.48,5.24 1.46,5.34 1.43,5.44 1.37,5.53 1.31,5.62 1.23,5.68 1.14,5.75 1.04,5.79 0.94,5.82 0.84,5.82 0.73,5.82 0.63,5.79 0.53,5.76 0.44,5.70 0.36,5.63 0.30,5.55 0.24,5.46 0.21,5.36 0.18,5.26 0.18,5.15 0.18,5.04 0.22,4.94 0.26,4.84 0.33,4.76 0.40,4.68 0.49,4.62 0.58,4.57 0.68,4.54 0.78,4.52 0.89,4.53 0.99,4.54 1.09,4.58 1.19,4.63 1.27,4.70 1.34,4.77 1.40,4.86 1.45,4.96 1.47,5.06 1.48,5.16 1.47,5.27 1.45,5.37 1.41,5.47 1.36,5.56 1.28,5.64 1.20,5.71 1.11,5.76 1.01,5.80 0.91,5.82 0.80,5.83 0.70,5.81 0.59,5.79 0.50,5.73 0.41,5.68 0.34,5.60 0.27,5.52 0.23,5.42 0.19,5.33 0.19,5.33 0.19,5.33 -0.46,3.69 -1.11,2.06 -1.23,1.09 -1.35,0.12 -1.35,-0.03 -1.34,-0.20 -1.30,-0.35 -1.26,-0.51 -1.18,-0.66 -1.10,-0.80 -0.98,-0.92 -0.87,-1.04 -0.73,-1.13 -0.60,-1.22 -0.44,-1.27 -0.29,-1.33 -0.12,-1.34 0.03,-1.36 0.19,-1.33 0.36,-1.31 0.51,-1.25 0.66,-1.19 0.79,-1.09 0.93,-0.99 1.03,-0.87 1.14,-0.74 1.21,-0.59 1.28,-0.44 1.32,-0.28 1.35,-0.12 1.35,-0.12 L 1.35,-0.12 Z"></path></g><g transform="translate(208.73101806640625 63.942718505859375) rotate(0 0.400115966796875 0.0189666748046875)" stroke="none"><path fill="#1e1e1e" d="M 0.49,-0.63 Q 0.49,-0.63 0.59,-0.61 0.69,-0.58 0.79,-0.53 0.88,-0.48 0.95,-0.40 1.02,-0.32 1.06,-0.22 1.10,-0.12 1.10,-0.01 1.11,0.08 1.08,0.19 1.05,0.29 0.99,0.38 0.93,0.47 0.85,0.53 0.77,0.59 0.67,0.63 0.57,0.66 0.46,0.66 0.35,0.67 0.25,0.63 0.15,0.60 0.07,0.54 -0.01,0.47 -0.07,0.38 -0.13,0.30 -0.16,0.19 -0.19,0.09 -0.18,-0.00 -0.18,-0.11 -0.14,-0.21 -0.10,-0.31 -0.03,-0.39 0.03,-0.47 0.12,-0.53 0.21,-0.58 0.31,-0.61 0.42,-0.63 0.52,-0.62 0.63,-0.61 0.72,-0.56 0.82,-0.52 0.90,-0.45 0.98,-0.37 1.03,-0.28 1.08,-0.19 1.09,-0.08 1.11,0.01 1.10,0.12 1.08,0.22 1.03,0.32 0.98,0.41 0.90,0.48 0.83,0.56 0.73,0.60 0.63,0.65 0.53,0.66 0.42,0.67 0.42,0.67 0.42,0.67 0.34,0.71 0.25,0.76 0.15,0.78 0.06,0.79 -0.03,0.79 -0.12,0.79 -0.22,0.76 -0.31,0.73 -0.39,0.68 -0.48,0.64 -0.55,0.57 -0.62,0.50 -0.67,0.42 -0.72,0.34 -0.75,0.25 -0.78,0.16 -0.79,0.06 -0.80,-0.03 -0.78,-0.12 -0.77,-0.22 -0.73,-0.31 -0.69,-0.40 -0.63,-0.47 -0.57,-0.55 -0.50,-0.61 -0.42,-0.67 0.03,-0.65 L 0.49,-0.63 Z"></path></g><g transform="translate(209.6075439453125 69.88540649414062) rotate(0 -4.267120361328125 11.07757568359375)" stroke="none"><path fill="#1e1e1e" d="M 1.09,-0.02 Q 1.09,-0.02 1.35,2.46 1.61,4.95 1.60,7.45 1.60,9.94 1.49,11.90 1.38,13.87 1.20,15.29 1.02,16.70 0.78,17.79 0.54,18.88 0.02,19.86 -0.49,20.84 -1.37,21.62 -2.26,22.39 -3.33,22.78 -4.40,23.16 -5.45,23.11 -6.51,23.06 -7.85,20.86 -9.18,18.65 -9.20,18.55 -9.22,18.44 -9.20,18.34 -9.18,18.23 -9.13,18.14 -9.08,18.05 -9.01,17.97 -8.93,17.90 -8.83,17.86 -8.74,17.81 -8.63,17.80 -8.52,17.79 -8.42,17.81 -8.32,17.84 -8.23,17.89 -8.14,17.95 -8.07,18.03 -8.00,18.11 -7.96,18.21 -7.92,18.31 -7.91,18.41 -7.91,18.52 -7.94,18.62 -7.97,18.72 -8.03,18.81 -8.09,18.90 -8.17,18.96 -8.26,19.03 -8.36,19.06 -8.46,19.09 -8.56,19.09 -8.67,19.09 -8.77,19.06 -8.87,19.03 -8.96,18.96 -9.04,18.90 -9.10,18.81 -9.16,18.72 -9.19,18.62 -9.21,18.52 -9.21,18.41 -9.20,18.30 -9.16,18.20 -9.12,18.11 -9.05,18.03 -8.99,17.94 -8.89,17.89 -8.80,17.84 -8.70,17.81 -8.60,17.79 -8.49,17.80 -8.38,17.81 -8.29,17.86 -8.19,17.90 -8.11,17.98 -8.04,18.05 -7.99,18.15 -7.94,18.24 -7.94,18.24 -7.94,18.24 -6.67,19.25 -5.40,20.26 -4.85,20.05 -4.31,19.84 -3.84,19.48 -3.37,19.12 -3.03,18.60 -2.70,18.07 -2.47,17.15 -2.23,16.23 -2.02,14.94 -1.80,13.64 -1.64,11.77 -1.48,9.90 -1.41,7.46 -1.35,5.03 -1.22,2.53 -1.09,0.02 -1.08,-0.10 -1.07,-0.23 -1.03,-0.36 -0.98,-0.48 -0.91,-0.59 -0.84,-0.70 -0.74,-0.79 -0.64,-0.88 -0.53,-0.95 -0.41,-1.01 -0.28,-1.05 -0.16,-1.08 -0.02,-1.09 0.10,-1.09 0.23,-1.06 0.36,-1.03 0.48,-0.97 0.60,-0.92 0.70,-0.83 0.80,-0.75 0.88,-0.64 0.96,-0.53 1.01,-0.41 1.06,-0.29 1.08,-0.15 1.09,-0.02 1.09,-0.02 L 1.09,-0.02 Z"></path></g><g transform="translate(215.6644287109375 70.99032592773438) rotate(0 6.07086181640625 3.0159912109375)" stroke="none"><path fill="#1e1e1e" d="M 1.17,-0.05 Q 1.17,-0.05 1.44,1.53 1.70,3.11 1.84,4.06 1.98,5.01 2.16,5.68 2.35,6.36 1.80,6.71 1.25,7.07 1.74,6.16 2.22,5.25 2.66,4.25 3.11,3.25 3.32,2.64 3.52,2.03 3.71,1.63 3.90,1.24 3.97,1.07 4.04,0.90 4.14,0.75 4.25,0.60 4.39,0.49 4.52,0.37 4.69,0.29 4.85,0.21 5.02,0.17 5.20,0.13 5.38,0.13 5.56,0.13 5.74,0.18 5.91,0.23 6.07,0.31 6.23,0.40 6.37,0.52 6.50,0.65 6.60,0.80 6.70,0.95 6.76,1.12 6.82,1.29 6.84,1.47 6.86,1.65 6.83,1.83 6.81,2.01 7.36,2.47 7.92,2.92 8.28,3.40 8.64,3.87 9.34,4.20 10.05,4.52 10.09,3.38 10.13,2.24 10.46,0.05 10.78,-2.14 10.79,-2.25 10.79,-2.35 10.82,-2.45 10.86,-2.55 10.92,-2.64 10.99,-2.72 11.07,-2.78 11.16,-2.84 11.27,-2.87 11.37,-2.89 11.47,-2.89 11.58,-2.88 11.68,-2.84 11.78,-2.80 11.86,-2.73 11.94,-2.66 11.99,-2.57 12.05,-2.48 12.07,-2.37 12.09,-2.27 12.08,-2.17 12.06,-2.06 12.02,-1.96 11.97,-1.87 11.90,-1.79 11.83,-1.71 11.73,-1.67 11.64,-1.62 11.53,-1.60 11.43,-1.58 11.32,-1.60 11.22,-1.62 11.12,-1.67 11.03,-1.72 10.96,-1.80 10.89,-1.88 10.84,-1.97 10.80,-2.07 10.79,-2.18 10.78,-2.28 10.80,-2.39 10.83,-2.49 10.88,-2.58 10.94,-2.67 11.02,-2.74 11.10,-2.81 11.20,-2.84 11.30,-2.88 11.40,-2.89 11.51,-2.89 11.61,-2.86 11.71,-2.83 11.80,-2.77 11.89,-2.71 11.95,-2.63 12.02,-2.54 12.05,-2.44 12.08,-2.34 12.08,-2.34 12.08,-2.34 12.72,0.29 13.37,2.92 12.99,4.48 12.61,6.04 11.73,6.83 10.84,7.62 9.74,7.62 8.65,7.62 7.96,7.25 7.26,6.87 6.66,6.31 6.06,5.76 5.63,5.14 5.21,4.52 4.84,3.87 4.47,3.21 4.19,2.22 3.90,1.24 3.97,1.07 4.04,0.90 4.14,0.75 4.25,0.61 4.39,0.49 4.52,0.37 4.69,0.29 4.85,0.21 5.02,0.17 5.20,0.13 5.38,0.13 5.56,0.13 5.74,0.18 5.91,0.23 6.07,0.31 6.23,0.40 6.37,0.52 6.50,0.65 6.60,0.80 6.70,0.95 6.76,1.12 6.82,1.29 6.84,1.47 6.86,1.65 6.83,1.83 6.81,2.01 6.66,2.54 6.52,3.06 6.26,3.80 6.00,4.55 5.43,5.82 4.86,7.09 3.96,8.15 3.06,9.21 1.59,8.98 0.12,8.75 -0.30,7.97 -0.73,7.19 -0.96,6.31 -1.18,5.42 -1.31,4.33 -1.43,3.24 -1.30,1.64 -1.17,0.05 -1.16,-0.09 -1.15,-0.23 -1.10,-0.36 -1.06,-0.50 -0.98,-0.62 -0.91,-0.74 -0.81,-0.84 -0.70,-0.93 -0.58,-1.01 -0.46,-1.08 -0.32,-1.12 -0.19,-1.16 -0.04,-1.16 0.09,-1.17 0.23,-1.14 0.37,-1.11 0.49,-1.05 0.62,-0.99 0.73,-0.90 0.84,-0.81 0.93,-0.70 1.01,-0.59 1.07,-0.46 1.13,-0.33 1.15,-0.19 1.17,-0.04 1.17,-0.05 L 1.17,-0.05 Z"></path></g><g transform="translate(232.46466064453125 62.76190185546875) rotate(0 4.1171875 8.37445068359375)" stroke="none"><path fill="#1e1e1e" d="M 1.26,-0.09 Q 1.26,-0.09 1.56,1.65 1.87,3.40 1.87,5.77 1.86,8.14 1.78,9.94 1.70,11.74 1.64,12.84 1.58,13.93 1.60,14.50 1.62,15.07 2.30,14.73 2.98,14.39 3.84,14.05 4.71,13.71 6.26,13.12 7.82,12.52 7.91,12.47 8.00,12.42 8.11,12.40 8.21,12.39 8.32,12.40 8.42,12.42 8.52,12.47 8.61,12.52 8.68,12.60 8.76,12.67 8.80,12.77 8.85,12.87 8.86,12.97 8.87,13.08 8.85,13.18 8.82,13.29 8.77,13.38 8.72,13.47 8.63,13.54 8.55,13.61 8.45,13.64 8.36,13.68 8.25,13.69 8.14,13.70 8.04,13.67 7.94,13.64 7.85,13.58 7.76,13.52 7.70,13.44 7.63,13.35 7.60,13.25 7.57,13.15 7.57,13.04 7.57,12.94 7.60,12.84 7.63,12.74 7.70,12.65 7.76,12.57 7.85,12.51 7.94,12.45 8.04,12.42 8.14,12.39 8.25,12.40 8.36,12.40 8.45,12.44 8.55,12.48 8.63,12.55 8.71,12.62 8.77,12.71 8.82,12.80 8.85,12.90 8.87,13.01 8.86,13.11 8.85,13.22 8.80,13.31 8.76,13.41 8.68,13.49 8.61,13.57 8.61,13.57 8.61,13.57 7.28,14.78 5.94,15.99 4.68,16.79 3.43,17.60 2.30,17.76 1.17,17.93 0.26,17.61 -0.65,17.29 -1.26,16.25 -1.87,15.22 -1.88,14.46 -1.89,13.70 -1.81,12.63 -1.73,11.55 -1.61,9.82 -1.49,8.08 -1.42,5.86 -1.35,3.63 -1.31,1.86 -1.26,0.09 -1.25,-0.06 -1.24,-0.21 -1.20,-0.35 -1.16,-0.50 -1.08,-0.63 -1.00,-0.76 -0.90,-0.87 -0.79,-0.98 -0.66,-1.06 -0.53,-1.14 -0.38,-1.19 -0.24,-1.24 -0.09,-1.25 0.06,-1.26 0.21,-1.23 0.36,-1.21 0.50,-1.15 0.64,-1.09 0.76,-0.99 0.88,-0.90 0.98,-0.78 1.07,-0.66 1.14,-0.53 1.20,-0.39 1.23,-0.24 1.26,-0.09 1.26,-0.09 L 1.26,-0.09 Z"></path></g><g transform="translate(244.54052734375 73.77120971679688) rotate(0 4.03814697265625 5.2572479248046875)" stroke="none"><path fill="#1e1e1e" d="M 1.07,-0.57 Q 1.07,-0.57 1.70,0.07 2.33,0.71 2.61,2.59 2.89,4.46 2.83,6.03 2.78,7.59 2.65,8.49 2.53,9.39 2.37,9.94 2.22,10.48 2.12,10.63 2.02,10.78 1.93,10.97 1.84,11.16 1.70,11.33 1.57,11.49 1.40,11.62 1.23,11.75 1.04,11.84 0.85,11.92 0.64,11.96 0.43,12.00 0.21,11.98 0.00,11.97 -0.19,11.90 -0.39,11.84 -0.57,11.72 -0.75,11.61 -0.90,11.46 -1.05,11.31 -1.16,11.13 -1.27,10.94 -1.33,10.74 -1.39,10.54 -1.40,10.32 -1.41,10.11 -1.37,9.90 -1.33,9.69 -0.69,9.15 -0.06,8.60 1.32,8.15 2.70,7.70 4.87,7.37 7.04,7.03 7.15,7.03 7.25,7.02 7.36,7.05 7.46,7.07 7.55,7.13 7.64,7.19 7.70,7.27 7.77,7.35 7.81,7.45 7.84,7.55 7.84,7.66 7.85,7.77 7.81,7.87 7.78,7.97 7.72,8.05 7.66,8.14 7.57,8.20 7.48,8.26 7.38,8.29 7.28,8.32 7.17,8.32 7.07,8.32 6.97,8.28 6.87,8.24 6.79,8.17 6.70,8.11 6.65,8.02 6.59,7.93 6.57,7.82 6.54,7.72 6.55,7.62 6.56,7.51 6.60,7.41 6.64,7.32 6.72,7.24 6.79,7.16 6.88,7.11 6.97,7.05 7.08,7.04 7.18,7.02 7.29,7.03 7.39,7.05 7.49,7.09 7.58,7.14 7.66,7.22 7.73,7.29 7.78,7.39 7.82,7.48 7.84,7.59 7.85,7.70 7.83,7.80 7.81,7.90 7.76,8.00 7.70,8.09 7.62,8.16 7.54,8.23 7.45,8.27 7.35,8.31 7.35,8.31 7.35,8.31 5.54,8.94 3.74,9.56 2.53,10.58 1.33,11.59 1.67,11.18 2.02,10.78 1.93,10.97 1.84,11.16 1.70,11.33 1.57,11.49 1.40,11.62 1.23,11.75 1.04,11.84 0.85,11.92 0.64,11.96 0.43,12.00 0.21,11.98 0.00,11.97 -0.19,11.90 -0.39,11.84 -0.57,11.72 -0.75,11.61 -0.90,11.46 -1.05,11.31 -1.16,11.13 -1.27,10.94 -1.33,10.74 -1.39,10.54 -1.40,10.32 -1.41,10.11 -1.37,9.90 -1.33,9.69 -1.18,9.26 -1.03,8.83 -0.91,8.13 -0.78,7.42 -0.70,6.13 -0.62,4.84 -0.69,3.54 -0.76,2.25 -0.91,1.41 -1.07,0.57 -1.12,0.43 -1.18,0.29 -1.20,0.15 -1.21,0.00 -1.20,-0.14 -1.18,-0.28 -1.13,-0.42 -1.08,-0.56 -0.99,-0.68 -0.91,-0.80 -0.80,-0.90 -0.69,-0.99 -0.56,-1.06 -0.43,-1.13 -0.29,-1.17 -0.15,-1.20 -0.00,-1.20 0.14,-1.21 0.28,-1.17 0.42,-1.14 0.55,-1.07 0.68,-1.00 0.79,-0.90 0.90,-0.81 0.99,-0.69 1.07,-0.57 1.07,-0.57 L 1.07,-0.57 Z"></path></g></svg>